<svg xmlns="http://www.w3.org/2000/svg" width="481" height="249" viewBox="0 0 481 249" fill="none"><path d="M136.198 230.606C136.713 231.303 137.228 231.999 137.743 232.696C137.901 232.421 138.057 232.148 138.215 231.874C133.857 231.496 129.557 230.565 125.428 229.124C125.561 229.3 125.695 229.474 125.829 229.65C125.823 224.371 125.911 219.093 126.097 213.817C126.283 208.542 126.563 203.27 126.94 198.005C127.315 192.761 127.785 187.523 128.351 182.295C128.484 181.076 128.598 179.851 128.772 178.637C128.92 177.599 129.117 176.532 129.548 175.569C129.94 174.693 130.523 173.905 131.317 173.355C132.08 172.827 132.95 172.511 133.853 172.322C135.822 171.91 137.87 172.092 139.857 172.238C142.516 172.432 145.175 172.628 147.833 172.822C153.083 173.207 158.336 173.56 163.582 173.976C165.243 174.107 167.515 174.406 168.112 176.258C168.459 177.331 168.315 178.533 168.286 179.64C168.251 180.972 168.216 182.303 168.182 183.635C168.042 188.94 167.903 194.244 167.764 199.549C167.625 204.833 167.486 210.116 167.347 215.401C167.207 220.705 167.069 226.01 166.929 231.315C166.895 232.605 166.861 233.894 166.827 235.182C166.809 235.885 167.902 235.885 167.92 235.182C168.063 229.772 168.205 224.361 168.347 218.951C168.489 213.561 168.63 208.172 168.772 202.783C168.914 197.393 169.055 192.004 169.197 186.614C169.267 183.916 169.345 181.218 169.41 178.519C169.436 177.384 169.413 176.178 168.817 175.173C168.312 174.321 167.48 173.772 166.567 173.432C165.647 173.088 164.647 172.97 163.673 172.89C162.383 172.783 161.09 172.7 159.798 172.605C157.097 172.407 154.397 172.209 151.696 172.011C148.995 171.813 146.295 171.615 143.593 171.417C141.225 171.244 138.837 170.963 136.46 170.984C134.509 171.001 132.409 171.272 130.767 172.409C128.927 173.685 128.139 175.75 127.789 177.885C127.377 180.399 127.18 182.961 126.925 185.494C126.656 188.172 126.412 190.853 126.192 193.536C125.753 198.881 125.414 204.235 125.174 209.592C124.932 214.971 124.791 220.353 124.75 225.737C124.74 227.041 124.735 228.345 124.738 229.649C124.738 229.903 124.91 230.096 125.139 230.176C129.362 231.649 133.76 232.579 138.216 232.965C138.609 232.999 138.927 232.466 138.689 232.143C138.174 231.446 137.659 230.751 137.144 230.054C136.969 229.817 136.67 229.698 136.396 229.858C136.161 229.995 136.023 230.367 136.2 230.606H136.198Z" fill="#182565"></path><path d="M167.437 235.953C177.778 236.461 188.13 236.727 198.483 236.744C208.779 236.762 219.077 236.536 229.363 236.069C235.185 235.804 241.001 235.46 246.814 235.04C246.722 234.7 246.631 234.362 246.539 234.022C241.955 237.16 236.391 238.724 230.842 238.484C229.278 238.416 227.729 238.198 226.205 237.84C226.339 238.016 226.472 238.191 226.606 238.367C227.275 230.561 227.87 222.748 228.39 214.929C228.91 207.111 229.356 199.289 229.725 191.463C229.934 187.055 230.117 182.646 230.279 178.236L229.732 178.783C235.719 179.34 241.706 179.896 247.694 180.453C249.388 180.611 251.082 180.769 252.777 180.926C253.476 180.991 253.473 179.897 252.777 179.833C246.79 179.276 240.803 178.72 234.815 178.162C233.121 178.004 231.427 177.847 229.732 177.69C229.43 177.662 229.195 177.963 229.186 178.236C228.899 186.067 228.54 193.893 228.104 201.717C227.668 209.54 227.157 217.358 226.572 225.171C226.243 229.572 225.888 233.969 225.512 238.366C225.492 238.594 225.695 238.842 225.912 238.893C231.537 240.218 237.509 239.635 242.804 237.336C244.305 236.684 245.738 235.889 247.089 234.964C247.498 234.683 247.396 233.904 246.813 233.945C236.487 234.691 226.143 235.193 215.792 235.45C205.499 235.704 195.199 235.715 184.905 235.485C179.08 235.354 173.256 235.145 167.436 234.858C166.732 234.824 166.735 235.917 167.436 235.951L167.437 235.953Z" fill="#182565"></path><path d="M252.887 180.752C252.707 187.918 252.528 195.083 252.349 202.25C252.171 209.416 251.99 216.581 251.811 223.747C251.71 227.793 251.608 231.838 251.507 235.884C251.498 236.285 251.984 236.582 252.33 236.357C258.625 232.227 266.677 234.189 273.679 232.667C276.767 231.995 279.891 230.692 281.991 228.243C284.468 225.356 284.944 221.529 284.925 217.858C284.902 213.449 284.636 209.031 284.476 204.625C284.312 200.062 284.148 195.5 283.985 190.937C283.657 181.812 283.329 172.686 282.999 163.561C282.673 154.471 282.346 145.38 282.019 136.289C281.978 135.158 281.938 134.025 281.897 132.893C281.876 132.31 280.909 132.111 280.823 132.747C279.545 142.223 278.267 151.699 276.99 161.174C276.628 163.858 276.266 166.54 275.904 169.223C276.08 169.09 276.255 168.956 276.431 168.823C266.067 168.078 255.703 167.335 245.338 166.591C234.974 165.847 224.61 165.104 214.246 164.359C208.432 163.942 202.616 163.524 196.802 163.107C196.1 163.056 196.104 164.15 196.802 164.2C207.166 164.944 217.53 165.688 227.894 166.432C238.259 167.176 248.623 167.919 258.987 168.664C264.801 169.081 270.617 169.499 276.431 169.915C276.642 169.93 276.928 169.737 276.958 169.515C278.236 160.039 279.514 150.563 280.791 141.088C281.153 138.404 281.515 135.722 281.877 133.039C281.519 132.99 281.162 132.942 280.803 132.893C281.128 141.916 281.452 150.937 281.776 159.96C282.101 168.983 282.425 178.004 282.749 187.027C283.072 196.015 283.395 205.003 283.718 213.991C283.855 217.768 284.24 221.939 282.531 225.448C281.085 228.417 278.261 230.204 275.185 231.148C268.333 233.247 260.808 231.344 254.125 234.166C253.304 234.512 252.52 234.926 251.775 235.416C252.049 235.573 252.322 235.73 252.597 235.888C252.777 228.722 252.956 221.557 253.135 214.39C253.315 207.224 253.495 200.059 253.673 192.893C253.774 188.847 253.876 184.802 253.977 180.756C253.995 180.053 252.901 180.053 252.884 180.756L252.887 180.752Z" fill="#182565"></path><path d="M197.977 163.123C184.61 163.507 171.245 163.891 157.878 164.273C144.581 164.654 131.282 165.036 117.985 165.417C110.483 165.632 102.982 165.847 95.4806 166.063C94.7785 166.083 94.7761 167.176 95.4806 167.156C108.847 166.772 122.213 166.388 135.579 166.006C148.877 165.624 162.175 165.243 175.473 164.862C182.974 164.647 190.475 164.432 197.977 164.216C198.679 164.195 198.681 163.103 197.977 163.123Z" fill="#182565"></path><path d="M95.6383 167.419C96.4253 156.749 97.2112 146.078 97.9982 135.407C98.1513 133.339 98.4586 131.248 98.0723 129.19C97.8088 127.785 97.2112 126.122 95.8848 125.383C94.5111 124.62 92.8338 125.171 91.9666 126.415C91.0228 127.77 90.9171 129.64 90.9839 131.235C91.4273 141.937 91.9957 152.635 92.501 163.334C93.0062 174.034 93.5127 184.734 94.018 195.434C94.5233 206.134 95.0298 216.833 95.535 227.534C95.5982 228.872 95.6614 230.209 95.7245 231.547C95.7573 232.248 96.8504 232.251 96.8176 231.547C96.327 221.164 95.8363 210.781 95.3456 200.398C94.8549 190.015 94.3642 179.631 93.8735 169.249C93.384 158.901 92.8957 148.553 92.4062 138.205C92.2884 135.714 92.0831 133.21 92.0625 130.716C92.0504 129.337 92.167 127.294 93.4496 126.441C94.765 125.565 95.9759 126.59 96.5176 127.787C97.1942 129.282 97.2343 130.958 97.1164 132.564C96.3537 142.919 95.5897 153.274 94.8269 163.628C94.7334 164.892 94.6411 166.155 94.5476 167.419C94.4953 168.121 95.5897 168.117 95.6407 167.419H95.6383Z" fill="#182565"></path><path d="M96.2749 232.05C109.578 233.861 122.881 235.673 136.184 237.483C149.488 239.295 162.79 241.106 176.093 242.917C183.589 243.938 191.085 244.958 198.58 245.979C199.268 246.073 199.565 245.02 198.871 244.925C185.567 243.114 172.265 241.302 158.961 239.492C145.658 237.68 132.356 235.868 119.052 234.058C111.557 233.037 104.06 232.017 96.5651 230.996C95.8777 230.902 95.5801 231.955 96.2749 232.05Z" fill="#182565"></path><path d="M198.601 244.529C199.544 224.797 200.039 205.043 200.083 185.288C200.127 165.634 199.725 145.979 198.877 126.343C198.401 115.322 197.784 104.308 197.028 93.3029H195.935C196.235 96.0385 196.357 98.8093 196.297 101.561C196.247 103.851 196.36 107.139 194.4 108.741C193.307 109.635 191.848 110.002 190.489 110.26C188.95 110.554 187.387 110.681 185.836 110.881C181.703 111.415 177.597 112.317 173.493 113.039C155.495 116.203 137.454 119.113 119.373 121.769C109.195 123.263 99.0043 124.677 88.8029 126.01C88.1155 126.1 88.1058 127.194 88.8029 127.103C107.36 124.678 125.882 121.991 144.362 119.033C153.586 117.557 162.8 116.015 172.002 114.405C176.463 113.625 180.918 112.676 185.4 112.033C188.277 111.62 191.452 111.639 194.08 110.248C196.845 108.786 197.179 105.781 197.337 102.956C197.515 99.7491 197.377 96.4951 197.028 93.3041C196.953 92.6193 195.887 92.5926 195.935 93.3041C197.287 113.013 198.194 132.751 198.649 152.501C199.1 172.151 199.108 191.81 198.668 211.459C198.421 222.487 198.034 233.512 197.508 244.529C197.474 245.232 198.567 245.231 198.601 244.529Z" fill="#182565"></path><path d="M89.3216 125.71C89.4114 123.579 89.5013 121.448 89.5912 119.316C89.6811 117.195 89.7697 115.074 89.8596 112.952C89.9106 111.75 89.9604 110.548 90.0114 109.346C90.0236 109.061 89.7515 108.786 89.4649 108.8C89.1588 108.813 88.9317 109.04 88.9183 109.346C88.8284 111.477 88.7385 113.608 88.6487 115.74C88.5588 117.861 88.4701 119.983 88.3802 122.104C88.3292 123.306 88.2794 124.508 88.2284 125.71C88.2163 125.995 88.4883 126.27 88.775 126.256C89.0811 126.243 89.3082 126.016 89.3216 125.71Z" fill="#182565"></path><path d="M89.7195 110.604C96.5783 108.701 103.447 106.833 110.325 105.001C117.169 103.177 124.023 101.389 130.886 99.6362C137.782 97.8744 144.688 96.149 151.603 94.46C158.518 92.7699 165.441 91.1161 172.373 89.4988C179.304 87.8803 186.245 86.2994 193.192 84.7525C194.044 84.5631 194.895 84.3737 195.746 84.1855C196.433 84.0337 196.142 82.9798 195.456 83.1315C188.506 84.6687 181.564 86.2423 174.631 87.8512C167.731 89.4527 160.839 91.0894 153.957 92.7614C147.04 94.4418 140.133 96.1587 133.234 97.9108C126.335 99.6629 119.444 101.45 112.565 103.274C105.684 105.098 98.8132 106.957 91.9519 108.851C91.1114 109.083 90.2709 109.316 89.4304 109.549C88.7539 109.737 89.0405 110.791 89.7207 110.603L89.7195 110.604Z" fill="#182565"></path><path d="M200.905 163.836C200.45 156.604 200.198 149.359 200.156 142.111C200.113 134.901 200.276 127.69 200.644 120.49C200.853 116.413 201.128 112.338 201.466 108.269C201.491 107.974 201.198 107.723 200.92 107.723C200.604 107.723 200.398 107.974 200.373 108.269C199.771 115.491 199.374 122.729 199.184 129.973C198.996 137.181 199.013 144.393 199.235 151.599C199.362 155.68 199.553 159.76 199.811 163.835C199.855 164.533 200.949 164.538 200.904 163.835L200.905 163.836Z" fill="#182565"></path><path d="M201.218 108.326C206.298 109.437 211.385 110.517 216.477 111.566C221.57 112.615 226.669 113.632 231.775 114.619C236.88 115.607 241.991 116.562 247.108 117.486C252.225 118.41 257.347 119.304 262.475 120.166C267.603 121.028 272.736 121.858 277.874 122.659C278.513 122.758 279.152 122.857 279.792 122.955C280.198 123.017 280.573 122.721 280.465 122.282C279.418 118.088 279.607 113.686 279.101 109.415C278.962 108.244 278.781 107.076 278.496 105.929C278.326 105.247 277.272 105.536 277.442 106.22C278.489 110.413 278.299 114.816 278.806 119.086C278.944 120.258 279.125 121.426 279.41 122.572L280.083 121.9C274.944 121.108 269.81 120.285 264.681 119.431C259.552 118.578 254.427 117.691 249.309 116.775C244.191 115.858 239.079 114.91 233.971 113.931C228.864 112.952 223.764 111.942 218.67 110.9C213.576 109.859 208.488 108.786 203.406 107.684C202.774 107.547 202.142 107.409 201.51 107.271C200.824 107.122 200.531 108.174 201.22 108.325L201.218 108.326Z" fill="#182565"></path><path d="M196.66 84.4623C201.969 85.6474 207.27 86.8737 212.559 88.1401C217.849 89.4078 223.13 90.7154 228.399 92.0644C233.669 93.4134 238.928 94.8037 244.176 96.234C249.425 97.6643 254.662 99.1359 259.887 100.649C265.112 102.161 270.325 103.713 275.528 105.307C276.183 105.508 276.84 105.71 277.496 105.911C278.17 106.119 278.458 105.065 277.787 104.857C272.588 103.255 267.379 101.691 262.156 100.168C256.933 98.6454 251.7 97.1641 246.454 95.7228C241.208 94.2816 235.952 92.8816 230.685 91.5217C225.418 90.1618 220.14 88.8432 214.852 87.5658C209.565 86.2885 204.267 85.0524 198.961 83.8564C198.291 83.7059 197.621 83.5553 196.95 83.406C196.265 83.253 195.973 84.3057 196.66 84.4599V84.4623Z" fill="#182565"></path><path d="M199.053 119.613C199.693 136.301 200.333 152.988 200.973 169.676C201.609 186.279 202.247 202.881 202.884 219.484C203.243 228.849 203.603 238.215 203.961 247.581C203.988 248.281 205.081 248.285 205.054 247.581C204.414 230.893 203.774 214.206 203.134 197.518C202.497 180.915 201.86 164.313 201.223 147.71C200.864 138.345 200.504 128.979 200.146 119.613C200.119 118.913 199.026 118.909 199.053 119.613Z" fill="#182565"></path><path d="M205.11 248.991C210.717 248.173 216.317 247.309 221.909 246.397C227.501 245.485 233.087 244.527 238.663 243.522C244.239 242.516 249.807 241.465 255.366 240.367C260.952 239.263 266.53 238.113 272.097 236.916C277.637 235.725 283.167 234.488 288.685 233.203C289.368 233.044 290.052 232.885 290.734 232.725C291.419 232.565 291.129 231.511 290.444 231.671C284.927 232.965 279.401 234.215 273.863 235.418C268.326 236.621 262.779 237.777 257.222 238.887C251.665 239.997 246.1 241.06 240.525 242.078C234.924 243.1 229.313 244.075 223.695 245.003C218.104 245.926 212.506 246.802 206.9 247.633C206.207 247.736 205.513 247.838 204.819 247.939C204.525 247.981 204.368 248.352 204.437 248.611C204.52 248.926 204.819 249.035 205.11 248.993V248.991Z" fill="#182565"></path><path d="M290.651 230.797C290.598 203.331 290.543 175.866 290.49 148.401C290.436 121.075 290.382 93.7509 290.328 66.4253C290.298 51.011 290.268 35.5967 290.237 20.1824C290.236 19.4794 289.143 19.4782 289.144 20.1824C289.197 47.6477 289.252 75.1129 289.306 102.578C289.359 129.904 289.414 157.228 289.467 184.554C289.497 199.968 289.528 215.382 289.558 230.797C289.559 231.5 290.653 231.501 290.651 230.797Z" fill="#182565"></path><path d="M288.841 21.325C289.4 24.9579 289.959 28.5908 290.519 32.2249C290.676 33.2424 290.832 34.2611 290.989 35.2786C291.033 35.5615 291.403 35.7437 291.662 35.6599C291.971 35.5603 292.091 35.292 292.043 34.9872C291.483 31.3543 290.925 27.7214 290.365 24.0873C290.208 23.0698 290.051 22.0511 289.895 21.0336C289.851 20.7507 289.481 20.5686 289.222 20.6524C288.913 20.7519 288.793 21.0203 288.841 21.325Z" fill="#182565"></path><path d="M288.929 36.5851C276.658 39.1119 264.388 41.6374 252.117 44.1642C239.908 46.6776 227.699 49.191 215.49 51.7043C208.619 53.1189 201.747 54.5334 194.876 55.948C194.187 56.09 194.479 57.1428 195.166 57.0019C207.437 54.4752 219.707 51.9496 231.978 49.4229C244.187 46.9095 256.396 44.3961 268.605 41.8827C275.476 40.4681 282.349 39.0536 289.219 37.639C289.908 37.497 289.617 36.4443 288.929 36.5851Z" fill="#182565"></path><path d="M195.092 56.4579C195.134 53.7199 195.175 50.9819 195.215 48.2439C195.256 45.5058 195.297 42.7678 195.338 40.0298C195.361 38.4938 195.384 36.9579 195.407 35.4231C195.412 35.1378 195.152 34.8634 194.86 34.8767C194.56 34.8901 194.319 35.1171 194.314 35.4231C194.272 38.1611 194.231 40.8992 194.191 43.6372C194.15 46.3752 194.108 49.1132 194.068 51.8513C194.045 53.3872 194.022 54.9232 193.999 56.4579C193.994 56.7433 194.254 57.0177 194.546 57.0043C194.846 56.991 195.087 56.7639 195.092 56.4579Z" fill="#182565"></path><path d="M194.921 34.6788C201.365 32.3342 207.821 30.0199 214.289 27.7372C220.755 25.4545 227.234 23.2034 233.722 20.985C240.242 18.7546 246.773 16.5569 253.315 14.3907C259.825 12.2355 266.346 10.1107 272.877 8.01859C279.408 5.92652 285.95 3.86602 292.5 1.83709C293.315 1.58453 294.13 1.33319 294.945 1.08185C295.616 0.875438 295.329 -0.179703 294.655 0.0279254C288.101 2.04836 281.558 4.10157 275.023 6.18514C268.49 8.26993 261.966 10.3863 255.454 12.5342C248.91 14.6918 242.376 16.8823 235.854 19.1042C229.362 21.3153 222.881 23.5592 216.412 25.8334C209.942 28.1076 203.484 30.4145 197.037 32.7519C196.235 33.0421 195.432 33.3335 194.63 33.6261C193.975 33.8653 194.258 34.9217 194.921 34.68V34.6788Z" fill="#182565"></path><path d="M295.116 1.08063C302.053 4.4634 308.99 7.84495 315.925 11.2277C322.893 14.6251 329.861 18.0236 336.829 21.4209C343.766 24.8037 350.702 28.1853 357.638 31.568C364.606 34.9654 371.574 38.3639 378.542 41.7612C385.479 45.144 392.415 48.5256 399.351 51.9083C400.214 52.3297 401.077 52.7498 401.94 53.1711C402.57 53.4783 403.124 52.5361 402.492 52.2277C395.555 48.8449 388.618 45.4633 381.683 42.0806C374.715 38.6832 367.747 35.2847 360.779 31.8874C353.842 28.5046 346.906 25.123 339.97 21.7403C333.002 18.3429 326.034 14.9444 319.066 11.547C312.129 8.16428 305.193 4.78273 298.257 1.39996C297.394 0.978636 296.531 0.558523 295.668 0.137195C295.037 -0.169998 294.484 0.772222 295.116 1.08063Z" fill="#182565"></path><path d="M402.368 53.0995C402.764 56.4519 403.158 59.8031 403.491 63.1628C403.823 66.4994 404.092 69.8421 404.241 73.1921C404.324 75.0765 404.368 76.9634 404.363 78.8503C404.363 79.081 404.532 79.3238 404.764 79.3772C404.983 79.427 405.28 79.3505 405.381 79.1259C406.269 77.1455 406.966 75.085 407.441 72.9674C407.916 70.8511 408.182 68.6837 408.227 66.5152C408.252 65.3034 408.206 64.0904 408.092 62.8835C408.065 62.5994 407.86 62.3225 407.545 62.3371C407.272 62.3493 406.97 62.5787 406.999 62.8835C407.198 64.9865 407.185 67.1077 406.962 69.2083C406.935 69.473 406.902 69.7377 406.868 70.0012C406.859 70.0655 406.868 70.0036 406.869 69.9927C406.864 70.0291 406.859 70.0655 406.854 70.1019C406.846 70.1651 406.836 70.2294 406.828 70.2926C406.808 70.4285 406.788 70.5645 406.766 70.7005C406.683 71.2178 406.588 71.7326 406.481 72.245C406.264 73.2783 405.997 74.3006 405.677 75.3084C405.498 75.8779 405.301 76.4413 405.09 76.9998C404.985 77.2742 404.877 77.5474 404.765 77.8194C404.754 77.8449 404.745 77.8704 404.734 77.8959C404.729 77.9068 404.677 78.0319 404.697 77.9833C404.717 77.936 404.681 78.0197 404.681 78.0197C404.663 78.0622 404.645 78.1047 404.627 78.146C404.565 78.2893 404.502 78.4326 404.439 78.5746C404.779 78.6669 405.117 78.758 405.458 78.8503C405.466 75.4784 405.317 72.1078 405.071 68.7444C404.827 65.3993 404.487 62.0603 404.113 58.7273C403.903 56.8501 403.682 54.9754 403.461 53.0995C403.428 52.8166 403.234 52.5385 402.914 52.5531C402.647 52.5652 402.331 52.7959 402.368 53.0995Z" fill="#182565"></path><path d="M406.473 62.6443C399.794 58.6423 393.069 54.718 386.297 50.875C379.526 47.0309 372.709 43.2681 365.849 39.5842C358.989 35.9015 352.086 32.299 345.141 28.779C338.196 25.259 331.209 21.8204 324.183 18.4644C317.156 15.1083 310.091 11.836 302.988 8.64753C302.097 8.24685 301.204 7.84859 300.311 7.45033C299.675 7.16621 299.117 8.10843 299.76 8.39376C306.872 11.5628 313.947 14.8132 320.983 18.1487C328.02 21.4829 335.016 24.9008 341.972 28.4002C348.928 31.8995 355.841 35.4814 362.712 39.1446C369.583 42.8067 376.41 46.5513 383.194 50.3748C389.977 54.1983 396.714 58.102 403.405 62.0845C404.245 62.5848 405.083 63.0863 405.923 63.5877C406.527 63.9496 407.078 63.0061 406.474 62.6443H406.473Z" fill="#182565"></path><path d="M298.8 7.83282C298.48 11.1755 298.16 14.5182 297.839 17.8609C297.518 21.2133 297.197 24.567 296.875 27.9194C296.694 29.8026 296.514 31.6846 296.333 33.5678C296.305 33.8532 296.604 34.1264 296.88 34.1142C297.199 34.0996 297.397 33.8738 297.426 33.5678C297.747 30.2251 298.067 26.8824 298.387 23.5397C298.709 20.1873 299.03 16.8337 299.352 13.4813C299.533 11.5981 299.712 9.71605 299.893 7.83282C299.921 7.54749 299.622 7.27429 299.347 7.28643C299.027 7.301 298.829 7.52684 298.8 7.83282Z" fill="#182565"></path><path d="M296.727 35.4231C303.792 38.5776 310.842 41.7673 317.876 44.9935C324.909 48.2196 331.926 51.4809 338.926 54.7775C345.926 58.0741 352.91 61.4058 359.876 64.774C366.843 68.141 373.792 71.5444 380.724 74.9818C387.624 78.4034 394.508 81.8603 401.373 85.3523C402.246 85.7967 403.121 86.2411 403.994 86.6867C404.62 87.0061 405.174 86.0626 404.546 85.7433C397.653 82.227 390.743 78.7458 383.815 75.2999C376.887 71.854 369.942 68.4421 362.98 65.0666C356.018 61.6912 349.039 58.3497 342.043 55.0446C335.046 51.7396 328.033 48.4697 321.004 45.2351C314.007 42.015 306.994 38.8302 299.964 35.6817C299.069 35.2811 298.175 34.8804 297.28 34.4809C296.643 34.1968 296.086 35.1378 296.728 35.4243L296.727 35.4231Z" fill="#182565"></path><path d="M403.202 86.5932C403.122 101.546 403.043 116.499 402.963 131.453C402.884 146.33 402.805 161.207 402.725 176.084C402.68 184.476 402.635 192.867 402.591 201.26C402.588 201.963 403.681 201.964 403.684 201.26C403.765 186.307 403.844 171.354 403.924 156.4L404.162 111.77C404.207 103.377 404.252 94.9858 404.295 86.5932C404.299 85.8902 403.206 85.889 403.202 86.5932Z" fill="#182565"></path><path d="M402.987 200.802C400.905 201.349 398.825 201.896 396.743 202.444C396.151 202.599 396.265 203.532 396.889 203.517C402.165 203.396 407.441 203.276 412.716 203.154C417.965 203.034 423.214 202.914 428.463 202.794C431.424 202.726 434.386 202.658 437.347 202.59C437.642 202.582 437.893 202.343 437.893 202.043C437.893 201.743 437.643 201.489 437.347 201.497C432.071 201.617 426.794 201.738 421.519 201.859C416.27 201.979 411.022 202.099 405.772 202.219C402.811 202.287 399.85 202.355 396.889 202.423C396.937 202.781 396.986 203.138 397.034 203.497C399.116 202.949 401.197 202.403 403.279 201.855C403.564 201.78 403.738 201.465 403.66 201.182C403.581 200.895 403.274 200.726 402.987 200.801V200.802Z" fill="#182565"></path><path d="M391.364 206.301C379.666 208.69 367.968 211.078 356.269 213.466C344.63 215.843 332.99 218.219 321.351 220.596C314.8 221.934 308.249 223.271 301.698 224.609C301.01 224.75 301.301 225.804 301.989 225.663C313.687 223.275 325.384 220.886 337.083 218.498C348.723 216.122 360.362 213.746 372.002 211.368C378.552 210.03 385.104 208.693 391.654 207.355C392.343 207.214 392.051 206.161 391.364 206.301Z" fill="#182565"></path><path d="M302.958 224.123C302.886 199.819 302.638 175.515 302.211 151.215C301.786 127.039 301.184 102.866 300.406 78.6985C299.967 65.0654 299.471 51.4336 298.92 37.8054C298.892 37.1048 297.799 37.1011 297.827 37.8054C298.809 62.0894 299.614 86.3807 300.239 110.678C300.862 134.85 301.308 159.028 301.578 183.206C301.73 196.845 301.826 210.486 301.866 224.126C301.868 224.829 302.961 224.83 302.959 224.126L302.958 224.123Z" fill="#182565"></path><path d="M297.691 37.2663C299.381 38.5849 301.069 39.9023 302.758 41.2209C304.448 42.5396 306.136 43.857 307.826 45.1756C308.782 45.9211 309.737 46.6678 310.695 47.4134C310.919 47.5882 311.251 47.6489 311.467 47.4134C311.647 47.2167 311.708 46.8281 311.467 46.6411C309.778 45.3225 308.089 44.0051 306.4 42.6865C304.71 41.3679 303.022 40.0504 301.332 38.7318C300.377 37.9863 299.421 37.2396 298.464 36.4941C298.239 36.318 297.907 36.2585 297.691 36.4941C297.511 36.6908 297.451 37.0793 297.691 37.2663Z" fill="#182565"></path><path d="M310.085 47.57C309.862 53.488 309.637 59.4061 309.413 65.3253C309.19 71.2129 308.968 77.1018 308.744 82.9895C308.618 86.3115 308.493 89.6324 308.367 92.9544C308.356 93.2495 308.625 93.5008 308.913 93.5008C309.218 93.5008 309.449 93.2507 309.46 92.9544C309.683 87.0364 309.908 81.1184 310.131 75.1992C310.355 69.3115 310.577 63.4226 310.801 57.535C310.927 54.2129 311.052 50.8921 311.178 47.57C311.189 47.275 310.92 47.0236 310.632 47.0236C310.327 47.0236 310.096 47.2737 310.085 47.57Z" fill="#182565"></path><path d="M310.917 54.7362C312.678 55.7161 314.447 56.6814 316.223 57.6321C318.008 58.5877 319.801 59.5287 321.601 60.4551C323.392 61.3767 325.191 62.2837 326.999 63.1761C328.814 64.0734 330.636 64.9549 332.465 65.8219C334.286 66.6852 336.114 67.5327 337.949 68.3656C338.181 68.4713 338.412 68.5757 338.644 68.6801C338.904 68.7979 339.244 68.7639 339.392 68.4846C339.519 68.2454 339.475 67.8629 339.197 67.7367C337.36 66.9074 335.531 66.0635 333.708 65.2038C331.876 64.3405 330.052 63.4627 328.235 62.569C326.426 61.6802 324.625 60.7769 322.832 59.8589C321.03 58.9361 319.236 57.9988 317.448 57.0468C315.67 56.0998 313.899 55.1381 312.137 54.1619C311.914 54.0393 311.692 53.9154 311.47 53.7916C311.22 53.6531 310.861 53.7236 310.722 53.987C310.586 54.2445 310.651 54.5857 310.917 54.735V54.7362Z" fill="#182565"></path><path d="M338.041 68.3559C337.731 73.7081 337.421 79.0591 337.11 84.4113C336.799 89.7635 336.489 95.1145 336.178 100.467C336.102 101.784 336.025 103.103 335.949 104.42C335.884 105.53 335.842 106.641 335.994 107.746C336.142 108.824 336.506 109.845 337.192 110.7C337.858 111.527 338.803 112.062 339.782 112.435C340.799 112.822 341.875 113.023 342.938 113.233C344.21 113.484 345.487 113.726 346.764 113.958C349.349 114.426 351.943 114.855 354.542 115.242C359.773 116.022 365.029 116.639 370.298 117.087C370.944 117.141 371.591 117.194 372.238 117.245C372.538 117.268 372.779 116.975 372.785 116.698L373.112 102.298C373.221 97.498 373.329 92.697 373.438 87.8973C373.499 85.1908 373.561 82.4856 373.622 79.7791C373.638 79.0761 372.545 79.0761 372.529 79.7791C372.419 84.5789 372.311 89.3798 372.202 94.1796C372.093 98.9793 371.985 103.78 371.875 108.58C371.815 111.286 371.753 113.992 371.692 116.698L372.238 116.152C367.079 115.752 361.931 115.196 356.806 114.475C354.234 114.113 351.669 113.711 349.111 113.269C346.646 112.843 344.161 112.431 341.722 111.867C340.761 111.645 339.798 111.359 338.961 110.823C338.157 110.307 337.588 109.539 337.301 108.63C336.991 107.65 336.959 106.613 336.986 105.594C337.019 104.367 337.115 103.139 337.186 101.914C337.493 96.6432 337.799 91.3711 338.103 86.099C338.41 80.827 338.716 75.5561 339.02 70.2841C339.058 69.6417 339.095 68.9982 339.132 68.3559C339.149 68.0608 338.869 67.8095 338.586 67.8095C338.276 67.8095 338.056 68.0596 338.039 68.3559H338.041Z" fill="#182565"></path><path d="M372.851 79.9515C376.079 80.8452 379.272 81.8663 382.418 83.0162C385.595 84.177 388.583 85.4069 391.629 86.8094C393.331 87.5925 395.016 88.4145 396.681 89.273C396.935 89.4041 397.286 89.347 397.429 89.0775C397.561 88.8274 397.504 88.4704 397.234 88.3295C394.214 86.7729 391.131 85.3414 387.997 84.0325C384.905 82.7418 381.763 81.5749 378.579 80.5356C376.78 79.9491 374.966 79.4039 373.142 78.8988C372.866 78.8223 372.535 78.9935 372.469 79.2801C372.404 79.5691 372.557 79.8702 372.851 79.9527V79.9515Z" fill="#182565"></path><path d="M397.225 88.661C397.126 93.9501 397.027 99.2379 396.928 104.527C396.83 109.788 396.732 115.05 396.633 120.312C396.577 123.279 396.523 126.248 396.467 129.215C396.461 129.51 396.722 129.762 397.013 129.762C397.305 129.762 397.554 129.512 397.56 129.215C397.658 123.926 397.758 118.638 397.856 113.349C397.955 108.088 398.053 102.826 398.152 97.5648C398.207 94.5972 398.262 91.6285 398.318 88.661C398.324 88.366 398.063 88.1146 397.771 88.1146C397.48 88.1146 397.231 88.3647 397.225 88.661Z" fill="#182565"></path><path d="M397.149 129.348C391.206 127.921 385.261 126.493 379.318 125.066C373.375 123.64 367.431 122.212 361.488 120.785C355.545 119.358 349.601 117.931 343.658 116.504C337.715 115.077 331.771 113.649 325.828 112.223C319.885 110.796 313.94 109.368 307.997 107.941C307.258 107.764 306.519 107.587 305.779 107.408C305.731 107.766 305.682 108.123 305.634 108.482C310.254 108.795 314.874 109.107 319.495 109.42C320.197 109.468 320.194 108.375 319.495 108.327C314.874 108.014 310.254 107.702 305.634 107.389C305.018 107.348 304.893 108.319 305.488 108.462C311.431 109.889 317.375 111.317 323.318 112.743C329.261 114.17 335.205 115.598 341.148 117.025C347.092 118.451 353.036 119.879 358.979 121.306C364.922 122.733 370.866 124.161 376.809 125.587C382.752 127.014 388.696 128.442 394.639 129.869C395.379 130.046 396.117 130.223 396.857 130.402C397.541 130.566 397.832 129.513 397.147 129.348H397.149Z" fill="#182565"></path><path d="M318.906 109.681C318.904 122.739 318.902 135.796 318.901 148.854C318.9 161.845 318.897 174.835 318.896 187.826C318.896 195.154 318.895 202.483 318.894 209.81C318.894 210.513 319.987 210.515 319.987 209.81C319.988 196.753 319.99 183.695 319.992 170.638C319.993 157.647 319.995 144.656 319.996 131.666C319.996 124.338 319.998 117.009 319.999 109.681C319.999 108.978 318.906 108.977 318.906 109.681Z" fill="#182565"></path><path d="M322.481 133.942C322.112 143.952 321.743 153.963 321.373 163.973C321.007 173.932 320.639 183.892 320.272 193.851C320.064 199.469 319.858 205.087 319.65 210.705C319.624 211.408 320.717 211.407 320.743 210.705C321.112 200.695 321.481 190.684 321.851 180.674C322.218 170.716 322.586 160.755 322.952 150.797C323.16 145.178 323.367 139.56 323.574 133.942C323.6 133.239 322.507 133.24 322.481 133.942Z" fill="#182565"></path><path d="M323.877 134.37C332.243 135.17 340.609 135.97 348.975 136.77C357.299 137.567 365.622 138.362 373.946 139.158C378.617 139.605 383.289 140.052 387.96 140.499C388.254 140.527 388.507 140.228 388.507 139.953C388.507 139.633 388.255 139.434 387.96 139.406C379.594 138.606 371.228 137.806 362.862 137.006C354.538 136.209 346.214 135.414 337.891 134.617C333.219 134.17 328.548 133.724 323.877 133.277C323.583 133.249 323.33 133.548 323.33 133.823C323.33 134.143 323.581 134.342 323.877 134.37Z" fill="#182565"></path><path d="M387.704 140.362C388.169 149.025 388.588 157.69 388.995 166.355C389.4 174.973 389.793 183.591 390.215 192.208C390.453 197.082 390.7 201.956 390.962 206.828C390.999 207.528 392.092 207.533 392.055 206.828C391.59 198.165 391.171 189.5 390.764 180.835C390.359 172.218 389.966 163.599 389.544 154.982C389.306 150.108 389.058 145.234 388.797 140.362C388.76 139.662 387.666 139.658 387.704 140.362Z" fill="#182565"></path><path d="M197.714 35.6975C197.882 41.9701 198.048 48.2439 198.216 54.5164C198.382 60.7574 198.549 66.9984 198.715 73.2394C198.808 76.7594 198.902 80.2806 198.997 83.8006C199.015 84.5024 200.108 84.5048 200.09 83.8006C199.922 77.528 199.756 71.2542 199.588 64.9816C199.422 58.7406 199.255 52.4997 199.089 46.2587C198.995 42.7387 198.902 39.2175 198.807 35.6975C198.789 34.9957 197.696 34.9933 197.714 35.6975Z" fill="#182565"></path><path d="M136.386 230.024C132.115 228.871 127.828 227.781 123.524 226.755C119.221 225.729 114.903 224.767 110.572 223.87C106.21 222.966 101.835 222.129 97.4494 221.356C95.3214 220.982 93.1898 220.573 91.0485 220.284C89.427 220.066 87.7873 220.038 86.1609 219.868C84.7557 219.721 83.0989 219.53 81.9779 218.611C80.8641 217.698 80.7645 216.265 80.9528 214.919C81.0086 214.522 81.09 214.128 81.1799 213.737C81.3366 213.052 80.2823 212.76 80.1256 213.447C79.7758 214.976 79.539 216.661 80.2313 218.133C80.9212 219.599 82.4832 220.3 83.9844 220.631C85.6642 221.002 87.3986 221.068 89.1088 221.191C91.0145 221.328 92.8643 221.673 94.7615 221.996C99.2336 222.759 103.694 223.589 108.141 224.488C112.566 225.381 116.978 226.343 121.375 227.371C125.753 228.395 130.115 229.485 134.461 230.642C135.006 230.788 135.551 230.934 136.095 231.081C136.776 231.264 137.066 230.21 136.386 230.027V230.024Z" fill="#182565"></path><path d="M81.0599 213.89C83.7271 214.225 86.3944 214.56 89.0616 214.897V213.804C84.1668 214.139 79.2732 214.474 74.3784 214.809L74.9249 215.356C74.9796 206.577 75.0245 197.753 76.2561 189.044C77.342 181.364 79.3728 173.751 82.9789 166.851C84.9502 163.079 87.383 159.563 90.3102 156.471C90.0236 156.25 89.7382 156.029 89.4515 155.809C86.2085 162.686 84.0162 170.033 82.9486 177.561C81.8846 185.072 81.9089 192.71 83.0457 200.211C83.6895 204.457 84.7 208.644 86.0616 212.716C86.245 213.264 87.2082 213.216 87.1353 212.57C85.883 201.51 84.6308 190.45 83.3785 179.391C83.0226 176.249 82.6668 173.106 82.3109 169.964C82.2769 169.668 82.0874 169.421 81.7643 169.418C79.2926 169.391 77.8861 166.978 77.4513 164.827C77.1853 163.508 77.1659 162.151 77.1112 160.811C77.0529 159.389 76.9958 157.968 76.9375 156.545C76.8221 153.701 76.7055 150.856 76.5902 148.012C76.4954 145.688 76.4784 143.34 76.0934 141.039C75.7096 138.742 74.8569 136.477 73.0678 134.908C72.7217 134.604 72.1338 134.798 72.135 135.294C72.152 145.841 72.1678 156.388 72.1848 166.936C72.4957 166.807 72.8067 166.678 73.1176 166.55C69.0524 161.862 63.6231 158.448 57.6424 156.797C57.221 156.681 56.7266 157.203 57.0254 157.6C59.1996 160.492 61.3785 163.395 63.2041 166.527C65.06 169.711 66.4337 173.106 67.2037 176.716C68.7876 184.145 67.9774 191.846 66.3292 199.187C65.3721 203.45 64.1369 207.643 62.9029 211.832C62.751 212.348 63.4434 212.765 63.8162 212.364C67.8791 208.002 68.9382 201.772 67.9325 196.043C66.8151 189.679 63.0049 184.2 58.5971 179.631C53.8954 174.756 48.3969 170.763 43.3916 166.221C38.5004 161.781 33.7258 156.598 32.0436 150.034C31.2906 147.096 31.2104 143.88 32.4505 141.057C33.6675 138.285 36.0153 136.354 38.47 134.701C40.9624 133.023 43.6236 131.526 45.7613 129.382C47.8625 127.275 49.3589 124.666 50.3998 121.894C51.4759 119.025 52.0577 115.999 52.45 112.968C52.8448 109.911 52.942 106.824 53.3343 103.768C53.6999 100.915 54.3412 97.9703 55.9299 95.5249C57.5829 92.9811 60.2465 91.4051 63.2417 91.0141C69.5188 90.1958 75.3185 93.9731 78.9817 98.7874C83.1708 104.291 84.8992 111.114 86.0081 117.825C86.3081 119.637 86.5668 121.455 86.8243 123.273C86.9227 123.966 87.9758 123.671 87.8786 122.983C86.8571 115.789 85.7968 108.366 82.2781 101.893C79.4141 96.6237 74.7816 91.8507 68.8167 90.3184C65.9066 89.5717 62.7182 89.6069 59.9271 90.7846C57.2076 91.9309 55.1805 94.1431 53.9926 96.8168C52.7889 99.5281 52.3407 102.493 52.0565 105.424C51.7553 108.536 51.601 111.653 51.0958 114.743C50.5929 117.819 49.8229 120.902 48.4358 123.708C47.0536 126.505 45.075 128.828 42.5559 130.664C40.1304 132.433 37.4583 133.856 35.1651 135.807C32.8708 137.76 31.1885 140.295 30.6383 143.286C29.4638 149.665 32.6801 155.99 36.6117 160.786C41.0754 166.23 46.7512 170.469 52.0589 175.031C57.153 179.408 62.117 184.262 65.0102 190.423C67.5402 195.812 68.1694 202.547 65.4985 208.011C64.8584 209.321 64.0373 210.523 63.0425 211.589C63.3474 211.766 63.6511 211.944 63.9559 212.121C66.1726 204.597 68.4062 196.993 68.9977 189.135C69.5613 181.649 68.5107 174.1 64.9543 167.42C62.9903 163.733 60.4737 160.38 57.9692 157.049C57.7639 157.316 57.5574 157.584 57.3522 157.851C63.164 159.456 68.3965 162.77 72.3451 167.323C72.6634 167.69 73.2792 167.387 73.2779 166.937C73.2609 156.389 73.2452 145.843 73.2282 135.295C72.9172 135.424 72.6063 135.552 72.2953 135.681C73.9775 137.159 74.7051 139.267 75.0549 141.422C75.4581 143.91 75.4339 146.475 75.5371 148.987C75.6561 151.912 75.7752 154.839 75.8942 157.764C75.9525 159.205 76.0023 160.647 76.0715 162.089C76.1347 163.391 76.2343 164.719 76.6084 165.974C77.3043 168.309 79.1639 170.481 81.7643 170.509L81.2178 169.963C82.47 181.023 83.7223 192.083 84.9745 203.142C85.3304 206.284 85.6863 209.427 86.0421 212.569C86.4004 212.521 86.7575 212.472 87.1158 212.423C84.7462 205.336 83.4599 197.915 83.2789 190.445C83.098 182.978 84.004 175.493 85.9838 168.291C87.1098 164.195 88.5831 160.199 90.3952 156.358C90.6455 155.827 89.9908 155.216 89.5365 155.696C84.2785 161.25 80.6238 168.105 78.2469 175.336C75.6075 183.364 74.5666 191.817 74.1464 200.228C73.895 205.266 73.8622 210.311 73.8306 215.353C73.8294 215.634 74.0832 215.92 74.3772 215.9C79.272 215.565 84.1656 215.229 89.0604 214.894C89.777 214.846 89.7479 213.888 89.0604 213.801C86.3932 213.466 83.7259 213.131 81.0586 212.795C80.3627 212.708 80.3688 213.802 81.0586 213.888L81.0599 213.89Z" fill="#182565"></path><path d="M82.6144 216.557C82.8998 216.557 83.1743 216.305 83.161 216.01C83.1476 215.714 82.9205 215.464 82.6144 215.464C82.329 215.464 82.0545 215.715 82.0679 216.01C82.0812 216.306 82.3083 216.557 82.6144 216.557Z" fill="#182565"></path><path d="M87.0331 213.175C75.752 213.271 64.472 213.367 53.1908 213.462C41.968 213.556 30.7439 213.652 19.521 213.747C13.1905 213.8 6.85886 213.854 0.528382 213.908C-0.174869 213.914 -0.176084 215.007 0.528382 215.001C11.8096 214.905 23.0895 214.809 34.3707 214.715C45.5935 214.62 56.8176 214.524 68.0405 214.429C74.371 214.376 80.7027 214.322 87.0344 214.268C87.7376 214.262 87.7388 213.169 87.0344 213.175H87.0331Z" fill="#182565"></path><path d="M439.559 201.986C437.659 195.134 437.66 187.847 439.307 180.944C440.954 174.04 444.208 167.494 448.828 162.093C451.44 159.041 454.474 156.364 457.861 154.2C458.218 153.972 458.226 153.281 457.731 153.202C451.244 152.155 445.97 157.273 441.944 161.648C442.255 161.777 442.566 161.905 442.877 162.034C444.081 152.59 443.266 142.898 440.518 133.782C439.748 131.226 438.821 128.722 437.759 126.273C437.569 125.836 436.859 125.975 436.76 126.403C434.506 136.147 433.193 146.109 432.863 156.105C432.77 158.911 432.756 161.718 432.816 164.524C433.091 164.366 433.364 164.21 433.639 164.052C427.998 159.859 421.629 156.689 414.888 154.699C414.448 154.569 414.002 155.101 414.271 155.502C417.989 161.049 422.445 166.097 427.512 170.45C428.939 171.675 430.414 172.844 431.929 173.96C432.021 173.62 432.112 173.281 432.204 172.941C425.101 172.256 418.394 168.56 413.927 163.013C409.166 157.101 407.266 149.054 408.63 141.612C409.337 137.754 410.999 134.247 412.94 130.868C414.888 127.477 417.056 124.191 418.607 120.588C419.394 118.76 419.889 116.864 420.503 114.976C421.099 113.139 422.023 111.569 423.531 110.338C426.177 108.178 429.797 107.219 433.107 106.671C439.544 105.605 446.297 106.577 452.278 109.137C458.274 111.704 463.628 115.898 467.257 121.345C470.96 126.9 472.713 133.574 472.613 140.222C472.512 146.85 470.588 153.468 466.947 159.023C465.006 161.984 462.561 164.444 459.886 166.744C457.011 169.216 453.997 171.629 451.895 174.833C447.632 181.337 448.258 189.538 449.681 196.818C450.042 198.664 450.464 200.496 450.904 202.325C450.945 202.498 451.107 202.67 451.286 202.706C460.04 204.502 468.938 205.603 477.868 205.983C480.401 206.091 482.935 206.139 485.472 206.133C486.175 206.13 486.176 205.037 485.472 205.04C476.599 205.064 467.726 204.39 458.963 202.999C456.491 202.607 454.028 202.156 451.577 201.653C451.705 201.781 451.832 201.908 451.958 202.035C450.178 194.624 448.299 186.329 451.052 178.915C452.431 175.201 455.084 172.36 458.014 169.789C460.841 167.311 463.78 164.983 466.124 162.018C470.357 156.665 472.853 150.087 473.528 143.316C474.201 136.561 473.009 129.582 469.842 123.556C466.715 117.603 461.658 112.781 455.758 109.606C449.862 106.433 443.08 104.824 436.384 105.217C433.022 105.413 429.612 106.075 426.499 107.38C424.826 108.082 423.217 109.009 421.938 110.313C420.537 111.741 419.785 113.527 419.221 115.418C418.644 117.357 418.053 119.25 417.191 121.086C416.336 122.906 415.338 124.656 414.317 126.386C412.291 129.818 410.151 133.216 408.767 136.972C406.067 144.297 406.72 152.745 410.389 159.623C413.846 166.099 420.035 170.969 427.056 173.044C428.737 173.541 430.461 173.865 432.205 174.033C432.805 174.091 432.865 173.297 432.481 173.014C427.249 169.157 422.542 164.591 418.515 159.49C417.355 158.021 416.258 156.502 415.216 154.948C415.01 155.215 414.804 155.483 414.599 155.75C421.253 157.715 427.521 160.854 433.088 164.993C433.427 165.244 433.919 164.904 433.911 164.521C433.698 154.619 434.435 144.699 436.138 134.942C436.621 132.176 437.182 129.425 437.814 126.69C437.482 126.734 437.149 126.777 436.816 126.82C440.547 135.424 442.421 144.815 442.325 154.19C442.299 156.812 442.115 159.43 441.784 162.029C441.723 162.506 442.418 162.741 442.717 162.415C446.411 158.401 451.426 153.281 457.44 154.251C457.396 153.918 457.352 153.586 457.31 153.253C451.157 157.183 446.147 162.749 442.667 169.15C439.185 175.557 437.195 182.788 437.018 190.083C436.918 194.19 437.408 198.313 438.506 202.273C438.693 202.949 439.748 202.662 439.56 201.982L439.559 201.986Z" fill="#182565"></path></svg>