<svg xmlns="http://www.w3.org/2000/svg" width="556" height="289" viewBox="0 0 556 289" fill="none"><path d="M267.224 0.317346C269.91 -0.0839357 272.934 0.219822 277.712 1.29098C287.261 3.43156 304.07 8.70102 314.958 11.9531C325.81 15.1942 330.967 16.4789 335.332 19.9355L335.738 20.2656C337.757 21.9434 339.587 24.0483 341.232 26.1416C342.111 27.2595 342.942 28.3797 343.723 29.4336C344.505 30.49 345.233 31.4771 345.917 32.3398C347.279 34.0593 348.461 35.284 349.56 36.3613C350.652 37.4326 351.693 38.386 352.73 39.5224C354.798 41.7855 356.908 44.8433 361.403 50.5615C365.922 56.3101 372.885 64.7951 376.693 69.4902C378.606 71.8473 379.7 73.2195 380.458 74.0224C381.206 74.8141 381.537 74.9523 381.909 74.9853C382.371 75.0263 382.959 74.9026 383.782 74.7177C384.576 74.5395 385.531 74.3202 386.624 74.2431C388.788 74.0904 391.535 74.4903 393.465 75.8115C395.402 77.1385 396.439 79.3379 396.852 80.8574C396.954 81.2332 397.031 81.6158 397.023 81.957C397.015 82.3023 396.916 82.6923 396.57 82.9511C396.245 83.1951 395.815 83.2331 395.365 83.1796C395.019 83.1384 394.608 83.0371 394.126 82.874L393.62 82.6904C393.036 82.4663 392.34 82.1582 391.589 81.8046C393.248 82.9403 395.025 84.1886 396.685 85.4238C397.998 86.0198 399.786 87.397 401.496 89.041C402.178 89.6971 402.855 90.405 403.494 91.1328C408.711 91.7325 411.251 91.286 413.906 90.6963C416.992 90.0109 420.193 89.137 424.178 86.6611C426.168 85.4239 428.445 83.7238 431.996 82.0713C435.559 80.4133 440.411 78.7968 447.641 77.6552C455.671 76.3872 466.659 75.7027 477.525 75.7461C479.091 75.6673 480.669 75.5876 482.251 75.5107C491.412 75.0654 500.687 74.6122 508.214 73.707C523.236 71.9002 531.29 68.2936 539.38 64.6699L539.585 65.1259L539.789 65.583C531.665 69.2219 523.504 72.8756 508.334 74.7002C502.847 75.3601 496.442 75.778 489.849 76.1289C494.094 76.3864 498.119 76.7753 501.708 77.3086C505.631 77.8913 509.044 78.6463 511.819 79.5351C514.586 80.4211 516.756 81.4518 518.161 82.6045C519.569 83.7588 520.3 85.1232 519.908 86.6201C519.534 88.0508 518.168 89.4123 515.917 90.706C511.393 93.3058 502.823 95.8938 493.332 97.7548C483.827 99.6187 473.323 100.769 464.898 100.458C456.467 100.147 450.106 98.3737 445.679 96.0283C441.268 93.6915 438.718 90.7526 438.04 88.082C437.697 86.7287 437.838 85.4472 438.498 84.2744C439.15 83.1154 440.287 82.1027 441.863 81.2207C444.123 79.9563 447.362 78.9209 451.605 78.1132C450.275 78.2767 449.002 78.4522 447.796 78.6425C440.645 79.7717 435.885 81.3643 432.418 82.9775C428.94 84.5961 426.768 86.229 424.706 87.5107C420.586 90.0702 417.263 90.9753 414.123 91.6728C411.55 92.2444 409.071 92.6785 404.417 92.2363C405.044 93.0229 405.609 93.8156 406.066 94.583C407.177 96.4448 407.677 98.1639 407.66 99.7695C407.644 101.377 407.11 102.828 406.227 104.152C405.348 105.469 404.116 106.673 402.86 107.553C401.622 108.42 400.286 109.026 399.195 109.041C398.621 109.049 398.12 108.892 397.669 108.569C397.231 108.256 396.861 107.802 396.506 107.246C396.07 106.563 395.618 105.656 395.08 104.546C395.093 104.709 395.106 104.871 395.115 105.032C395.288 107.949 394.922 110.928 392.252 112.318C390.954 112.994 389.17 113.254 387.116 113.086C385.055 112.917 382.685 112.314 380.184 111.222C375.363 109.116 369.999 105.163 367.503 102.271L367.271 101.995C366.059 100.515 365.624 99.3009 365.631 98.164C365.636 97.4009 365.846 96.6971 366.084 96.0351C364.976 97.237 363.445 98.0313 361.525 98.2031C358.03 98.516 353.346 96.7506 349.369 92.8525C345.397 88.96 342.103 82.9153 339.707 78.0527C338.685 75.9775 337.814 74.0908 337.124 72.3056C333.877 70.9274 331.012 69.6439 328.422 68.4814C325.139 67.0078 322.306 65.735 319.69 64.7138C314.802 62.8058 310.668 61.7749 305.056 61.2246L303.913 61.1211C297.675 60.5991 289.603 60.5999 281.924 60.3545C274.236 60.1087 267.084 59.6223 261.841 59.5517C259.228 59.5171 257.125 59.587 255.454 59.8134C253.778 60.0405 252.58 60.4195 251.744 60.9707C250.934 61.5053 250.426 62.2267 250.091 63.3535C249.748 64.5066 249.592 66.0577 249.487 68.2236C249.384 70.3676 249.33 73.1174 249.098 75.8779C248.865 78.6402 248.45 81.4693 247.605 83.8017C246.834 85.9354 245.707 87.6361 244.297 88.9746C245.986 88.276 247.549 87.5047 249.035 86.7451C252.01 85.2244 254.758 83.7044 257.979 83.3427C259.587 83.1621 261.304 83.2709 263.74 83.4384C266.187 83.6067 269.403 83.8382 274.061 83.9179C283.354 84.0758 298.542 83.628 308.084 84.1445C317.694 84.6646 321.703 86.1648 327.664 88.5468C333.598 90.9187 341.511 94.1798 347.893 96.997C354.245 99.8026 359.201 102.212 362.202 105.669C362.953 106.534 363.579 107.462 364.253 108.437C364.931 109.419 365.671 110.468 366.668 111.619C368.659 113.916 371.704 116.648 377.35 119.983C388.673 126.672 410.379 135.742 427.557 141.267C444.701 146.78 457.305 148.749 479.121 149.491C490.024 149.861 503.28 149.925 515.492 150.662C527.69 151.398 538.962 152.808 545.897 155.914C549.387 157.476 551.804 159.477 553.382 161.862C554.959 164.246 555.673 166.977 555.819 169.958C556.111 175.886 554.157 182.921 552.159 190.41C548.151 205.439 543.804 222.814 538.412 237.228C533.021 251.639 526.573 263.112 522.435 271.728C520.376 276.014 518.843 279.694 517.346 282.473C515.845 285.257 514.303 287.296 512.133 288.242C509.96 289.188 507.277 288.99 503.933 287.959C500.58 286.926 496.47 285.027 491.387 282.453C481.204 277.297 466.971 269.359 453.17 256.951C446.271 250.749 439.485 243.434 434.24 236.953C431.618 233.713 429.377 230.674 427.697 228.083C426.028 225.507 424.883 223.326 424.499 221.812C424.306 221.053 424.286 220.39 424.501 219.861C424.726 219.308 425.173 218.984 425.72 218.85C416.671 216.506 404.732 213.808 395.431 211.725C388.695 210.216 383.363 209.037 378.073 208.2C378.387 208.652 378.645 209.129 378.873 209.612C379.724 211.411 380.348 213.599 379.682 215.429C379.341 216.365 378.682 217.151 377.556 218.073C376.434 218.991 374.797 220.086 372.443 221.625C367.72 224.713 360 229.658 351.314 234.554C342.629 239.449 332.981 244.294 326.871 247.21C320.768 250.123 318.146 251.137 315.435 251.669C312.75 252.196 309.975 252.247 305.562 252.541C301.121 252.837 294.949 253.38 291.859 253.651C290.308 253.788 289.158 253.856 288.395 253.891C288.013 253.908 287.727 253.917 287.536 253.921C287.441 253.923 287.369 253.924 287.32 253.925H287.236C287.23 253.925 287.221 253.926 287.208 253.926C287.183 253.926 287.144 253.926 287.095 253.927C286.995 253.928 286.85 253.931 286.668 253.936C286.303 253.948 285.792 253.971 285.208 254.017C284.032 254.108 282.595 254.29 281.464 254.644C279.093 255.384 274.333 256.869 269.521 258.01C264.678 259.157 259.899 259.933 255.479 261.404C253.28 262.137 251.172 263.042 249.146 263.931C247.128 264.816 245.18 265.69 243.329 266.34C239.585 267.654 236.231 268.055 230.953 266.95C225.718 265.854 218.567 263.272 212.392 260.853C206.189 258.424 200.991 256.17 196.081 254.797C193.63 254.111 191.255 253.646 188.237 253.015C185.224 252.384 181.593 251.591 176.663 250.255C166.776 247.575 151.8 242.747 136.527 238.847C121.307 234.96 105.873 232.016 83.1982 236.686C60.4753 241.368 30.484 253.692 0.424805 266.047L0.0439453 265.122C30.068 252.782 60.1608 240.412 82.9971 235.707C105.881 230.994 121.482 233.973 136.774 237.878C152.015 241.77 167.144 246.639 176.925 249.29C181.829 250.619 185.439 251.408 188.442 252.036C191.441 252.664 193.859 253.137 196.351 253.834C201.325 255.225 206.605 257.514 212.756 259.923C218.934 262.342 226.014 264.895 231.158 265.972C236.259 267.04 239.428 266.65 242.998 265.396C244.804 264.762 246.711 263.908 248.745 263.016C250.772 262.127 252.915 261.205 255.163 260.456L256.007 260.185C260.249 258.865 264.842 258.091 269.29 257.037C274.065 255.906 278.794 254.429 281.166 253.688C282.407 253.301 283.935 253.113 285.131 253.02C285.733 252.972 286.26 252.949 286.637 252.937C286.825 252.932 286.976 252.928 287.08 252.927C287.132 252.926 287.173 252.926 287.201 252.926C287.215 252.926 287.226 252.925 287.233 252.925H287.309C287.353 252.924 287.422 252.923 287.514 252.921C287.697 252.917 287.975 252.908 288.35 252.892C289.099 252.858 290.234 252.79 291.771 252.655C294.858 252.384 301.042 251.84 305.496 251.543C309.977 251.244 312.64 251.198 315.242 250.687C317.817 250.182 320.338 249.22 326.44 246.308C332.536 243.398 342.163 238.564 350.823 233.683C359.481 228.802 367.181 223.871 371.896 220.788C374.263 219.241 375.85 218.176 376.922 217.299C377.987 216.426 378.49 215.78 378.742 215.087C379.263 213.657 378.8 211.794 377.97 210.039C377.596 209.249 377.177 208.549 376.58 207.973C374.405 207.655 372.215 207.395 369.917 207.196C368.186 207.046 366.391 206.931 364.567 206.836C363.009 207.069 361.315 207.373 359.496 207.748C353.295 209.027 345.704 211.094 333.925 214.869C333.23 215.092 332.521 215.323 331.799 215.557L331.664 215.894C330.12 219.588 326.904 223.229 323.812 225.134C321.614 226.487 319.395 227.003 317.567 226.559C312.053 228.041 304.978 229.16 298.753 229.779C290.304 230.62 283.343 230.552 277.635 229.777C274.636 229.371 271.987 228.767 269.207 227.979C261.971 226.765 253.257 224.809 246.125 223.49C242.166 222.758 238.671 222.218 235.675 221.733C232.687 221.25 230.182 220.818 228.232 220.305C226.3 219.796 224.849 219.19 224.115 218.601C223.928 218.45 223.76 218.28 223.648 218.088C223.534 217.891 223.462 217.641 223.532 217.373C223.601 217.11 223.782 216.923 223.975 216.796C224.166 216.67 224.405 216.577 224.67 216.509C225.705 216.24 227.599 216.216 230.056 216.438C232.535 216.663 235.65 217.147 239.162 217.936C246.179 219.514 254.799 222.314 261.294 224.442C264.361 225.447 266.951 226.3 269.42 227.001C270.171 227.127 270.906 227.247 271.623 227.355C279.174 228.496 284.555 228.565 295.195 225.874C300.349 224.571 306.724 222.621 313.268 220.529C313.093 219.333 313.049 218.021 313.126 216.65C313.339 212.855 314.471 208.524 315.907 205.764C316.628 204.378 317.447 203.345 318.423 202.705C319.413 202.056 320.524 201.836 321.766 202.008C324.19 202.343 327.187 204.179 328.767 206.857C330.163 209.225 330.427 212.208 330.157 215.036C330.45 214.941 330.741 214.848 331.029 214.755C332.161 211.539 331.933 208.355 330.481 205.638C330.118 204.958 329.676 204.306 329.161 203.674C326.334 203.042 323.103 202.259 319.137 201.283C308.467 198.657 292.415 194.623 281.052 190.975C280.688 190.924 280.325 190.872 279.966 190.814C271.544 189.477 264.411 186.376 259.625 182.94C257.226 181.218 255.426 179.418 253.58 177.411C252.002 175.695 250.4 173.843 248.349 171.732C245.999 172.029 243.391 171.055 240.514 168.087C238.396 165.902 236.096 162.603 234.285 159.377C232.081 157.671 229.925 156.102 227.98 154.811C221.993 150.834 218.027 149.489 212.988 148.031C207.928 146.567 201.838 145.003 196.683 144.24C191.551 143.481 187.335 143.513 180.208 144.404C173.067 145.297 163.254 147.011 154.531 148.669C145.815 150.325 138.27 151.912 128.152 152.557C118.045 153.2 105.37 152.903 95.1465 152.656C84.9169 152.409 77.1083 152.211 73.2041 152.112C71.2628 152.063 60.8812 152.039 50.4746 152.218C45.2725 152.307 40.0697 152.448 35.917 152.661C33.84 152.768 32.0301 152.893 30.6172 153.038C29.181 153.185 28.2148 153.348 27.7793 153.513C25.7595 154.275 22.6583 155.449 19.3789 155.715C16.0853 155.982 12.5544 155.336 9.74805 152.403C6.98113 149.511 4.97866 144.448 4.11816 139.296C3.25847 134.148 3.5137 128.758 5.41895 125.208C7.35507 121.601 10.93 119.994 15.0684 119.627C19.1993 119.261 23.9647 120.119 28.4434 121.511C32.9267 122.905 37.1579 124.844 41.7852 126.944C46.4186 129.047 51.4666 131.319 57.623 133.403C69.9536 137.578 86.7295 141.001 97.3242 141.563C107.912 142.126 112.218 139.824 113.681 138.427C114.069 138.056 114.166 137.833 114.174 137.723C114.177 137.672 114.171 137.535 113.833 137.301C113.494 137.066 112.929 136.813 112.074 136.528C111.228 136.247 110.136 135.947 108.769 135.607C106.044 134.931 102.217 134.096 98.3691 132.967C95.6472 132.168 92.8861 131.212 90.46 130.046C81.7905 129.337 72.263 128.628 64.6963 127.73C54.9869 126.579 48.3624 125.105 43.7363 121.702C42.8304 121.036 42.0023 120.293 41.2705 119.417C30.23 116.408 20.4779 112.621 13.2529 107.528C4.88024 101.627 -0.132472 93.9457 0.220703 83.7119C0.571574 73.5487 6.21869 60.9429 13.8887 49.3486C21.5668 37.742 31.3297 27.0619 40.0127 20.7539L40.8252 20.1748C49.1935 14.3127 56.5705 12.503 63.3096 12.8945C69.3872 13.2476 74.9057 15.389 80.1064 17.8759C81.0257 17.7175 81.9569 17.6142 82.8994 17.5615C93.0596 16.9938 104.426 22.4445 111.521 27.498C115.077 30.0305 117.614 32.5004 119.068 34.7568C120.061 36.2965 120.575 37.7835 120.518 39.1347C134.773 45.7997 152.401 52.5083 162.854 55.499C168.273 57.0492 171.728 57.5902 174.239 57.5664C176.727 57.5427 178.312 56.965 180.009 56.2138C183.403 54.7126 187.099 52.5824 192.188 46.7158C194.751 43.7607 197.643 39.8895 200.75 36.0283C203.841 32.1867 207.129 28.3751 210.432 25.625C217.04 20.1238 223.71 18.8918 232.416 15.5693C241.186 12.222 252.231 6.70406 258.913 3.44039C262.236 1.81746 264.541 0.717983 267.224 0.317346ZM263.671 84.4365C261.211 84.2674 259.591 84.1673 258.09 84.3359C255.091 84.6727 252.525 86.0848 249.49 87.6357C247.036 88.8901 244.325 90.2042 241.159 91.166C240.19 91.6553 239.148 92.0472 238.043 92.3525C237.169 92.5936 236.255 92.78 235.317 92.913C236.528 93.1947 237.485 93.5109 238.229 93.8896C239.245 94.4063 239.89 95.0553 240.225 95.9121C240.873 97.571 240.284 99.7858 238.815 101.546C237.331 103.325 234.921 104.693 231.893 105.548C228.869 106.4 225.154 106.762 222.123 106.186C219.087 105.608 216.673 104.07 215.642 101.668C214.634 99.3211 214.977 96.146 216.881 94.3994C217.838 93.5211 219.143 93.0527 220.655 92.7666C221.258 92.6525 221.905 92.565 222.59 92.4941C221.905 92.4828 221.257 92.4855 220.663 92.5078C218.819 92.5768 217.541 92.8176 216.611 93.2441C215.816 93.6089 215.253 94.1198 214.805 94.8291L214.619 95.1455C213.64 96.9377 213.226 99.8012 214.108 102.785C214.994 105.779 217.192 108.904 219.346 111.083C221.494 113.256 223.556 114.449 225.966 116.153C226.338 116.417 226.717 116.692 227.101 116.982C227.485 116.988 227.883 116.995 228.298 117.006C228.302 117.005 228.306 117.005 228.311 117.005C228.658 116.967 229.088 116.99 229.564 117.046C230.619 117.084 231.778 117.137 233.072 117.207C238.517 117.502 246.387 118.095 252.882 118.715C253.726 118.637 254.566 118.557 255.39 118.474C257.802 118.23 260.094 117.991 261.969 117.938C263.855 117.885 265.315 118.019 266.75 118.186C268.186 118.354 269.577 118.551 271.372 118.637C274.985 118.811 280.183 118.533 284.164 118.463C288.134 118.393 290.808 118.534 294.939 118.849C295.574 118.897 296.242 118.949 296.932 119.003C299.485 118.418 302.117 118.001 304.772 117.905C306.74 117.834 308.714 117.941 310.313 118.127C311.113 118.22 311.825 118.333 312.399 118.456C312.958 118.576 313.435 118.714 313.729 118.873C313.859 118.943 314.071 119.076 314.162 119.314C314.216 119.457 314.217 119.613 314.16 119.759C314.109 119.891 314.022 119.985 313.95 120.045C313.812 120.16 313.632 120.234 313.468 120.288C313.293 120.345 313.083 120.395 312.847 120.437C311.909 120.607 310.388 120.703 308.456 120.686C305.228 120.656 300.778 120.309 297.005 120.013C295.846 120.281 294.7 120.585 293.572 120.91C289.994 121.942 286.498 123.22 283.581 123.852C280.805 124.453 278.49 124.491 276.296 124.228L275.858 124.172C273.543 123.852 271.342 123.212 269.404 122.543C267.511 121.889 265.868 121.201 259.112 120.381C257.332 120.165 255.198 119.94 252.886 119.719C251.266 119.868 249.619 119.998 248.022 120.055C243.087 120.23 238.646 119.738 234.81 119.034C232.868 118.678 231.16 118.286 229.865 118.095C229.733 118.075 229.607 118.058 229.488 118.044C229.109 118.03 228.743 118.019 228.39 118.01C230.095 119.444 231.862 121.266 233.557 123.841C236.059 127.641 238.4 133.068 239.62 136.951C240.442 139.564 240.765 141.513 240.74 143.132C240.916 143.513 241.092 143.886 241.269 144.251C241.834 145.42 242.407 146.5 242.986 147.533C244.621 147.607 246.32 148.303 247.975 149.761C250.347 151.852 252.658 155.529 253.913 158.639C255.176 161.767 255.413 164.427 254.482 166.763C254.361 167.069 254.218 167.368 254.058 167.659C255.641 170.829 257.292 173.957 259.046 176.562C260.794 179.16 262.637 181.228 265.426 183.135C268.225 185.049 271.998 186.816 277.625 188.778C278.77 189.178 279.991 189.584 281.272 189.996C285.087 190.525 289.14 190.726 293.115 190.881C297.48 191.051 301.76 191.165 305.472 191.604C312.922 192.486 318.088 194.676 322.258 197.042C325.317 198.777 327.886 200.634 329.71 202.771C335.173 203.984 339.104 204.614 344.033 204.978C347.812 205.256 352.176 205.377 356.667 205.521C359.274 205.605 361.922 205.697 364.517 205.831C368.303 205.271 371.372 205.131 373.54 205.507C375.084 205.775 376.192 206.307 377.03 207.028C382.763 207.879 388.413 209.128 395.648 210.749C405.78 213.018 419.07 216.023 428.341 218.505C434.793 220.232 439.314 221.711 443.554 223.645C446.662 221.455 450.431 218.751 454.107 214.52C456.003 212.338 457.881 209.744 459.895 206.882C460.751 205.664 461.634 204.4 462.55 203.1C463.483 195.827 465.961 188.215 471.947 181.845C479.021 174.318 490.95 168.582 501.544 164.733C506.851 162.805 511.845 161.344 515.762 160.364C517.72 159.874 519.413 159.504 520.743 159.257C522.059 159.012 523.055 158.88 523.602 158.881C523.739 158.881 523.878 158.89 524 158.918C524.061 158.932 524.141 158.957 524.219 159.002C524.298 159.048 524.403 159.132 524.466 159.274C524.602 159.586 524.413 159.838 524.354 159.909C524.273 160.008 524.165 160.092 524.066 160.16C523.672 160.433 522.892 160.81 521.861 161.27C519.782 162.197 516.431 163.571 512.499 165.285C504.593 168.732 494.187 173.62 486.056 179.418C477.936 185.208 472.066 191.92 467.264 198.298C465.939 200.057 464.698 201.789 463.513 203.469C463.359 204.716 463.249 205.955 463.176 207.178C462.927 211.325 463.086 215.275 463.257 218.725C463.427 222.152 463.613 225.132 463.4 227.268C463.188 229.409 462.564 230.832 461.52 231.599C460.468 232.37 459.132 232.373 457.755 232.022C456.372 231.671 454.841 230.938 453.295 230.091C451.753 229.246 450.131 228.25 448.615 227.381C446.929 226.414 445.311 225.57 443.658 224.797C442.219 225.811 440.973 226.697 439.975 227.573C442.603 230.699 444.043 234.021 444.546 236.641C444.803 237.981 444.822 239.171 444.604 240.066C444.389 240.943 443.891 241.704 443.004 241.796C442.594 241.838 442.172 241.723 441.774 241.532C441.372 241.339 440.96 241.051 440.556 240.7C439.748 239.998 438.929 239.004 438.24 237.87C436.878 235.628 435.928 232.676 436.77 230.23L436.854 230.001C437.214 229.088 437.819 228.277 438.588 227.504C435.943 224.601 432.28 221.947 429.399 220.63C428.644 220.284 427.954 220.036 427.36 219.898C426.76 219.759 426.296 219.741 425.973 219.816C425.673 219.886 425.513 220.027 425.428 220.237C425.328 220.482 425.298 220.9 425.468 221.567C425.808 222.908 426.871 224.97 428.536 227.539C430.191 230.092 432.41 233.101 435.018 236.323C440.233 242.768 446.983 250.043 453.839 256.207C467.546 268.53 481.689 276.422 491.838 281.561C496.92 284.134 500.964 285.997 504.228 287.003C507.498 288.011 509.893 288.127 511.733 287.325C513.575 286.522 514.982 284.751 516.465 281.999C517.951 279.241 519.438 275.659 521.533 271.295C525.705 262.61 532.105 251.233 537.476 236.877C542.846 222.522 547.176 205.211 551.192 190.152C553.207 182.599 555.102 175.742 554.82 170.007C554.68 167.156 554.002 164.612 552.548 162.414C551.094 160.217 548.841 158.328 545.489 156.827C538.742 153.806 527.645 152.398 515.433 151.661C503.234 150.925 490.036 150.863 479.087 150.491C457.199 149.747 444.5 147.766 427.25 142.219C410.034 136.682 388.252 127.584 376.841 120.844C371.121 117.464 367.987 114.667 365.913 112.273C364.878 111.079 364.113 109.993 363.431 109.006C362.745 108.013 362.154 107.138 361.447 106.324C358.618 103.066 353.886 100.737 347.489 97.9121C341.122 95.1013 333.221 91.8451 327.293 89.4755C321.395 87.1186 317.496 85.6549 308.029 85.1425C298.495 84.6265 283.435 85.0775 274.043 84.9179C269.358 84.8377 266.12 84.6049 263.671 84.4365ZM439.246 228.26C438.508 229.012 437.99 229.754 437.715 230.556C437.019 232.578 437.786 235.197 439.095 237.351C439.741 238.414 440.496 239.323 441.212 239.945C441.57 240.257 441.908 240.487 442.207 240.631C442.511 240.777 442.742 240.818 442.901 240.802C443.152 240.776 443.455 240.555 443.632 239.829C443.804 239.123 443.805 238.089 443.563 236.829C443.097 234.397 441.747 231.249 439.246 228.26ZM460.712 207.457C458.698 210.319 456.795 212.95 454.862 215.175C451.288 219.289 447.627 221.989 444.598 224.132C446.096 224.85 447.576 225.633 449.112 226.514C450.672 227.408 452.238 228.372 453.775 229.214C455.308 230.053 456.747 230.734 458.002 231.053C459.262 231.373 460.231 231.304 460.929 230.792C461.633 230.275 462.203 229.203 462.405 227.169C462.608 225.128 462.43 222.249 462.258 218.774C462.087 215.321 461.925 211.325 462.178 207.118C462.217 206.469 462.266 205.815 462.326 205.157C461.779 205.938 461.241 206.705 460.712 207.457ZM313.45 221.52C306.934 223.602 300.582 225.543 295.44 226.843C289.211 228.418 284.74 229.06 280.59 229.098C285.644 229.544 291.616 229.485 298.653 228.784C304.411 228.211 310.845 227.214 316.068 225.914C315.896 225.801 315.729 225.678 315.57 225.541C314.575 224.683 313.915 223.388 313.529 221.868C313.5 221.754 313.476 221.638 313.45 221.52ZM430.843 220.229C433.644 221.707 436.889 224.159 439.316 226.82C440.245 226.006 441.366 225.192 442.605 224.316C439.212 222.808 435.583 221.567 430.843 220.229ZM328.96 216.477C324.345 217.982 319.342 219.632 314.405 221.216C314.435 221.354 314.465 221.489 314.499 221.622C314.856 223.026 315.436 224.107 316.223 224.784C316.61 225.118 317.066 225.366 317.576 225.521C319.378 225.028 320.997 224.497 322.341 223.933C325.027 222.805 326.575 221.561 327.511 220.265C328.358 219.091 328.731 217.833 328.96 216.477ZM229.966 217.435C227.513 217.212 225.773 217.257 224.921 217.478C224.731 217.527 224.611 217.578 224.541 217.62C224.577 217.668 224.637 217.738 224.741 217.821C225.3 218.271 226.576 218.834 228.487 219.338C230.382 219.837 232.839 220.261 235.835 220.746C238.823 221.23 242.334 221.772 246.307 222.507C250.947 223.365 256.187 224.475 261.257 225.482C261.166 225.453 261.074 225.423 260.982 225.393C254.478 223.261 245.905 220.477 238.943 218.912C235.467 218.131 232.396 217.655 229.966 217.435ZM321.628 202.998C320.599 202.856 319.737 203.038 318.971 203.541C318.191 204.053 317.472 204.923 316.795 206.226C315.434 208.842 314.33 213.03 314.124 216.706C314.054 217.962 314.091 219.147 314.234 220.22C319.285 218.599 324.406 216.908 329.115 215.374C329.446 212.519 329.219 209.593 327.905 207.365C326.479 204.948 323.747 203.291 321.628 202.998ZM330.026 216.13C330.023 216.15 330.022 216.171 330.019 216.191C329.96 216.589 329.892 216.986 329.806 217.382C330.076 216.914 330.322 216.44 330.54 215.964C330.37 216.019 330.198 216.074 330.026 216.13ZM330.654 204.001C330.913 204.38 331.15 204.768 331.363 205.166L331.52 205.47C332.869 208.178 333.116 211.269 332.202 214.375C332.681 214.221 333.153 214.066 333.619 213.917C345.413 210.138 353.042 208.058 359.294 206.769C359.519 206.722 359.742 206.678 359.963 206.634C358.852 206.593 357.741 206.557 356.635 206.521C352.154 206.378 347.765 206.255 343.96 205.975C339.328 205.633 335.563 205.056 330.654 204.001ZM371.094 206.301C372.059 206.394 373.007 206.498 373.945 206.612C373.762 206.568 373.571 206.527 373.369 206.492C372.708 206.377 371.947 206.315 371.094 206.301ZM286.18 191.511C296.908 194.717 310.136 198.038 319.375 200.312C322.697 201.13 325.499 201.81 327.974 202.379C326.355 200.789 324.256 199.325 321.765 197.912C317.689 195.6 312.65 193.461 305.354 192.598C301.693 192.164 297.465 192.051 293.076 191.88C290.796 191.791 288.475 191.685 286.18 191.511ZM522.171 160.03C521.809 160.085 521.393 160.153 520.926 160.24C519.62 160.483 517.948 160.849 516.005 161.335C512.118 162.307 507.157 163.758 501.885 165.674C491.318 169.512 479.58 175.184 472.676 182.53C467.4 188.144 464.921 194.768 463.828 201.295C464.673 200.114 465.55 198.912 466.465 197.696C471.3 191.274 477.241 184.475 485.475 178.604C493.697 172.742 504.187 167.818 512.1 164.368C516.077 162.634 519.365 161.287 521.454 160.355C521.716 160.239 521.955 160.131 522.171 160.03ZM253.428 168.634C252.445 169.95 251.072 170.994 249.496 171.482C251.364 173.43 252.871 175.164 254.315 176.734C256.143 178.721 257.89 180.463 260.208 182.128C263.613 184.573 268.272 186.86 273.776 188.426C269.962 186.936 267.12 185.505 264.861 183.96C261.946 181.966 260.018 179.799 258.216 177.121C256.523 174.606 254.935 171.632 253.428 168.634ZM236.471 161.1C237.972 163.495 239.66 165.769 241.231 167.391C243.593 169.827 245.638 170.737 247.409 170.781C247.355 170.727 247.302 170.672 247.247 170.617C244.279 167.672 240.385 164.243 236.471 161.1ZM242.404 148.538C241.955 148.562 241.515 148.637 241.09 148.764C239.143 149.343 237.394 150.936 236.467 151.788C236.267 151.971 235.983 152.089 235.704 152.173C235.411 152.261 235.059 152.329 234.672 152.379C233.985 152.467 233.154 152.499 232.272 152.478C232.473 153.118 232.713 153.794 233.008 154.514C233.541 155.815 234.246 157.253 235.056 158.71C239.657 162.281 244.443 166.425 247.951 169.907L248.694 170.656C248.734 170.648 248.774 170.643 248.812 170.634C250.491 170.237 251.971 169.088 252.919 167.615C251.413 164.584 249.991 161.588 248.61 159.015C247.161 156.315 245.762 154.096 244.39 151.863C243.72 150.775 243.059 149.684 242.404 148.538ZM243.598 148.604C244.139 149.534 244.686 150.436 245.242 151.34C246.608 153.561 248.026 155.81 249.492 158.541C250.782 160.944 252.116 163.73 253.496 166.524C253.515 166.48 253.536 166.437 253.554 166.393C254.354 164.384 254.195 162.007 252.986 159.014C251.77 156.001 249.535 152.47 247.312 150.511C246.047 149.396 244.794 148.801 243.598 148.604ZM196.277 113.838C195.958 113.817 195.574 113.891 195.09 114.104C194.108 114.538 192.837 115.49 191.461 116.815C190.094 118.133 188.654 119.789 187.335 121.595C186.015 123.402 184.829 125.342 184.04 127.261C183.25 129.184 182.873 131.051 183.126 132.73C183.38 134.413 184.276 135.975 185.248 137.254C186.221 138.533 187.222 139.473 187.689 139.966C187.804 140.086 187.896 140.191 187.958 140.275C187.984 140.31 188.031 140.378 188.062 140.46C188.076 140.495 188.112 140.6 188.091 140.733C188.079 140.81 188.047 140.901 187.977 140.983C187.906 141.066 187.82 141.114 187.745 141.139C187.614 141.181 187.502 141.159 187.466 141.151C187.416 141.14 187.375 141.124 187.35 141.113C187.297 141.091 187.247 141.062 187.206 141.037C187.121 140.986 187.02 140.915 186.911 140.834C186.475 140.509 185.777 139.912 185.145 139.28C184.828 138.964 184.527 138.638 184.239 138.329C183.949 138.017 183.671 137.721 183.386 137.448C182.816 136.903 182.246 136.476 181.575 136.238C180.898 135.998 180.073 135.934 178.783 135.934C177.527 135.934 175.797 135.995 173.483 135.971C168.825 135.921 161.595 135.525 152.757 135.081C143.914 134.637 133.427 134.143 124.403 133.381C119.89 132.999 115.743 132.55 111.448 132.081C107.153 131.612 102.709 131.122 97.5938 130.655C96.2963 130.537 94.9547 130.42 93.5811 130.304C95.2093 130.937 96.9292 131.501 98.6514 132.007C102.473 133.129 106.248 133.951 109.01 134.637C110.385 134.978 111.507 135.285 112.39 135.579C113.264 135.87 113.942 136.159 114.402 136.478C114.863 136.798 115.213 137.227 115.172 137.795C115.135 138.303 114.786 138.753 114.371 139.149C112.618 140.824 107.978 143.131 97.2715 142.562C86.5696 141.994 69.7022 138.549 57.3018 134.351C51.094 132.249 46.0061 129.959 41.3711 127.855C36.7299 125.749 32.5588 123.838 28.1465 122.466C23.7296 121.093 19.1058 120.273 15.1572 120.623C11.216 120.972 8.0206 122.475 6.2998 125.681C4.54815 128.944 4.25937 134.071 5.10449 139.132C5.94892 144.188 7.89997 149.025 10.4707 151.712C13.0019 154.357 16.1922 154.97 19.2979 154.719C22.4175 154.466 25.3942 153.344 27.4268 152.577C28.0044 152.359 29.1019 152.188 30.5156 152.043C31.9529 151.895 33.7811 151.77 35.8652 151.663C40.0348 151.449 45.2505 151.307 50.457 151.218C60.8679 151.039 71.2667 151.064 73.2295 151.113C77.1336 151.212 84.9413 151.409 95.1699 151.656C105.405 151.903 118.034 152.199 128.089 151.559C138.132 150.919 145.611 149.346 154.345 147.686C163.072 146.028 172.91 144.309 180.084 143.412C187.271 142.513 191.582 142.475 196.829 143.251C202.052 144.024 208.192 145.602 213.266 147.07C218.361 148.545 222.432 149.925 228.534 153.978C229.986 154.942 231.552 156.059 233.168 157.27C232.759 156.447 232.392 155.648 232.082 154.893C231.724 154.018 231.442 153.2 231.214 152.431C229.407 152.3 227.471 151.934 226.183 151.243C223.472 149.79 217.981 146.851 213.876 143.125C209.755 139.384 207.053 134.874 204.767 130.108C203.624 127.726 202.582 125.271 201.643 123.03C200.818 121.064 200.077 119.271 199.412 117.82L199.132 117.22C198.862 116.653 198.609 116.165 198.369 115.749C197.982 115.303 197.624 114.819 197.285 114.3C197.246 114.265 197.207 114.232 197.168 114.201C196.875 113.971 196.588 113.858 196.277 113.838ZM236.46 150.449C235.225 151.087 233.714 151.481 231.944 151.33C231.957 151.377 231.969 151.425 231.981 151.473C232.943 151.51 233.84 151.477 234.544 151.387C234.898 151.341 235.193 151.282 235.417 151.215C235.656 151.143 235.762 151.078 235.791 151.052C235.974 150.884 236.2 150.677 236.46 150.449ZM200.365 117.503C201.029 118.959 201.765 120.735 202.565 122.644C203.504 124.884 204.538 127.318 205.668 129.676C207.93 134.39 210.564 138.768 214.548 142.384C218.548 146.014 223.931 148.902 226.655 150.362C227.691 150.917 229.304 151.256 230.933 151.402C230.914 151.326 230.894 151.251 230.876 151.176C230.389 151.078 229.885 150.941 229.364 150.757C226.204 149.636 222.424 146.811 220.297 144.182C218.152 141.53 217.645 139.02 217.895 137.444C218.021 136.642 218.358 136.018 218.996 135.655C219.6 135.312 220.383 135.256 221.279 135.346C223.08 135.526 225.763 136.343 227.62 138.041C229.491 139.753 230.46 142.3 230.913 144.967C231.196 146.628 231.28 148.292 231.701 150.297C233.669 150.544 235.265 150.04 236.485 149.291L236.779 149.101C238.211 148.125 239.085 146.775 239.498 145.081C239.628 144.547 239.711 143.975 239.735 143.337C238.647 140.956 237.576 138.309 236.507 135.707C235.227 132.591 233.946 129.541 232.623 127.04C231.302 124.545 229.934 122.588 228.906 121.119C228.397 120.391 227.957 119.765 227.659 119.26C227.51 119.006 227.385 118.765 227.303 118.543C227.282 118.486 227.263 118.426 227.246 118.364C227.083 118.233 226.921 118.104 226.759 117.979C223.451 117.947 221.174 118.121 218.172 118.443C215.884 118.689 213.146 119.025 210.483 119.164C207.828 119.303 205.191 119.251 203.107 118.698C202.058 118.42 201.157 118.016 200.365 117.503ZM221.18 136.341C220.347 136.258 219.82 136.337 219.491 136.524C219.196 136.692 218.977 136.995 218.882 137.601C218.686 138.838 219.066 141.07 221.074 143.553C223.1 146.057 226.733 148.761 229.699 149.813C230.021 149.928 230.336 150.019 230.642 150.096C230.271 148.189 230.176 146.597 229.928 145.135C229.519 142.729 228.693 140.565 227.243 139.069L226.945 138.779C225.295 137.27 222.839 136.507 221.18 136.341ZM240.47 145.317C240.141 146.663 239.543 147.835 238.646 148.805C239.311 148.395 240.04 148.033 240.805 147.806C241.154 147.702 241.509 147.629 241.868 147.583C241.42 146.769 240.976 145.921 240.534 145.022C240.513 145.121 240.493 145.22 240.47 145.317ZM229.922 120.828C230.929 122.269 232.239 124.177 233.507 126.572C234.856 129.122 236.154 132.216 237.432 135.326C238.1 136.953 238.764 138.584 239.429 140.15C239.256 139.295 239.008 138.338 238.666 137.252C237.466 133.433 235.16 128.095 232.722 124.391C231.802 122.994 230.862 121.828 229.922 120.828ZM192.464 101.692C191.351 104.531 190.224 107.477 188.845 110.38C185.534 117.348 180.71 124.175 171.884 127.873C163.097 131.554 150.402 132.099 127.912 131.015C116.625 130.47 102.837 129.511 88.5654 127.882C89.2395 128.298 89.9643 128.692 90.7285 129.064C93.1309 129.261 95.4692 129.457 97.6846 129.659C102.81 130.126 107.264 130.618 111.558 131.087C115.852 131.556 119.988 132.003 124.487 132.384C133.49 133.144 143.957 133.637 152.807 134.082C161.661 134.527 168.861 134.921 173.494 134.971C175.826 134.995 177.457 134.934 178.783 134.934C180.076 134.934 181.054 134.993 181.909 135.296C182.408 135.473 182.848 135.728 183.251 136.024C182.728 135.07 182.308 134.009 182.138 132.879C181.847 130.954 182.286 128.895 183.114 126.881C183.944 124.862 185.179 122.852 186.527 121.006C187.877 119.158 189.354 117.457 190.767 116.096C192.171 114.743 193.543 113.694 194.686 113.189C195.264 112.934 195.814 112.805 196.343 112.84C196.372 112.842 196.401 112.846 196.431 112.849C195.973 112 195.538 111.084 195.101 110.109C194.008 107.679 192.821 104.749 192.464 101.692ZM277.493 2.26754C272.746 1.20334 269.87 0.933308 267.371 1.3066C264.867 1.68061 262.7 2.7043 259.352 4.33981C252.691 7.59327 241.596 13.1365 232.772 16.5039C223.885 19.8959 217.509 21.0339 211.071 26.3935C207.851 29.0751 204.616 32.8191 201.529 36.6552C198.459 40.4715 195.519 44.4006 192.943 47.3711C188.078 52.9795 184.419 55.2785 181.077 56.8281L180.413 57.1289C178.651 57.9087 176.925 58.5409 174.248 58.5664C171.595 58.5915 168.032 58.021 162.579 56.4609C152.128 53.471 134.601 46.804 120.354 40.1611C120.281 40.4162 120.186 40.6654 120.064 40.9072C119.63 41.7742 118.901 42.4973 117.993 43.1894C117.086 43.8808 115.956 44.5745 114.687 45.3593C112.136 46.9363 108.931 48.9386 105.459 52.2177C98.4911 58.798 90.4216 70.5387 85.833 81.583C81.2519 92.6092 80.1435 102.94 80.4902 110.836C80.8069 118.046 82.3301 123.102 86.832 126.673C101.724 128.429 116.196 129.448 127.961 130.016C150.487 131.102 162.952 130.53 171.497 126.95C180.003 123.386 184.684 116.808 187.941 109.951C189.575 106.513 190.839 103.033 192.192 99.6533C192.252 99.5035 192.314 99.3544 192.374 99.205C192.45 97.707 192.777 96.202 193.462 94.7324C194.325 92.8807 195.746 91.1095 197.381 89.4648C201.272 83.9892 206.853 79.8873 209.251 78.5185C209.566 78.339 209.836 78.2003 210.06 78.1045C210.265 78.0163 210.49 77.939 210.688 77.9345C210.787 77.9324 210.97 77.9456 211.128 78.08C211.312 78.2361 211.343 78.4477 211.33 78.5898C211.319 78.7192 211.271 78.8324 211.23 78.913C211.186 79.0003 211.129 79.0897 211.066 79.1767C210.591 79.8351 209.315 81.0267 207.362 82.5595C205.38 84.1163 202.722 86.0095 200.235 88.1728C199.509 88.8044 198.805 89.4545 198.143 90.1181C198.011 90.3049 197.881 90.4936 197.754 90.6836C195.977 93.3315 194.635 96.2926 193.364 99.4248C193.231 103.015 194.635 106.634 196.013 109.699C196.692 111.211 197.339 112.533 198.059 113.654C198.457 114.037 198.825 114.548 199.188 115.166C200.277 116.396 201.586 117.26 203.363 117.731C205.29 118.243 207.798 118.304 210.432 118.166C213.059 118.029 215.757 117.697 218.065 117.449C220.676 117.169 222.75 116.998 225.398 116.977C225.395 116.974 225.392 116.972 225.389 116.97C223.055 115.318 220.865 114.042 218.635 111.786C216.41 109.536 214.098 106.273 213.15 103.069C212.2 99.8563 212.623 96.7153 213.741 94.667C214.311 93.6232 215.068 92.8517 216.194 92.3349C217.3 91.8278 218.731 91.5797 220.626 91.5088C221.477 91.4769 222.432 91.4825 223.443 91.5156C219.588 89.7981 216.904 86.778 215.107 83.5605C214.166 81.8738 213.436 80.0788 213.315 78.288C213.193 76.4752 213.698 74.6899 215.174 73.0654C216.625 71.4691 219 70.0467 221.587 68.9482C224.183 67.8458 227.049 67.047 229.527 66.7265C230.278 66.6295 230.995 66.5759 231.678 66.5634C234.637 65.4362 237.542 64.1032 240.194 62.8613C244.134 61.0155 247.54 59.364 251.349 58.3623C255.123 57.3697 259.369 57.0065 262.334 56.4765C263.839 56.2075 265.036 55.8948 265.947 55.498C266.857 55.1019 267.442 54.6389 267.776 54.0918C268.123 53.5257 268.245 52.8082 268.322 52.1914C268.357 51.9134 268.388 51.6047 268.438 51.4013C268.458 51.3171 268.506 51.1312 268.644 50.9921C268.73 50.9048 268.861 50.8267 269.029 50.8193C269.146 50.8142 269.244 50.8453 269.317 50.8808L269.383 50.917L269.477 50.9853C269.565 51.0605 269.639 51.1504 269.691 51.2148C269.773 51.3153 269.872 51.4478 269.976 51.5839C270.19 51.8651 270.472 52.2252 270.858 52.6259C271.629 53.4249 272.828 54.4019 274.724 55.2002C278.568 56.819 285.262 57.7047 290.675 58.0752C293.368 58.2595 295.724 58.3147 297.864 58.3486C300 58.3824 301.936 58.3946 303.765 58.4941C307.475 58.6959 310.539 59.2207 313.63 58.1513C316.727 57.0797 319.823 54.4029 321.07 51.583C322.294 48.8156 321.759 45.8373 319.95 43.1259C319.133 41.9015 318.059 40.7402 316.835 39.705C318.455 41.629 319.169 43.131 319.314 44.3857C319.496 45.9424 318.791 47.0043 318.172 47.8369C317.555 48.6664 316.899 49.4299 316.002 49.998C315.098 50.5706 313.985 50.9233 312.483 51.0009C310.993 51.078 309.1 50.8851 307.235 50.3886C305.374 49.8928 303.502 49.0833 302.081 47.8984C299.234 45.5227 298.309 41.74 298.568 39.1201C298.7 37.7887 299.141 36.7083 299.905 35.8925C300.667 35.0792 301.71 34.5723 302.967 34.3105L303.446 34.2236C305.427 33.9192 307.925 34.1603 310.461 34.9882C310.209 34.7779 309.953 34.5657 309.691 34.3525C304.619 31.8707 298.002 29.0643 292.151 26.288C285.039 22.9135 279.278 19.6925 268.252 20.499C262.936 20.8885 256.403 22.2159 250.093 23.7783C242.391 25.8759 234.858 28.1513 230.319 29.5029C228.453 30.0586 227.095 30.4574 226.242 30.7021C225.817 30.8241 225.513 30.9091 225.334 30.956C225.256 30.9766 225.173 30.9974 225.118 31.0058C225.109 31.0073 225.093 31.0092 225.075 31.0107C225.065 31.0115 225.019 31.0156 224.962 31.0078C224.938 31.0045 224.864 30.9936 224.782 30.9472C224.687 30.8929 224.534 30.7563 224.528 30.5234C224.524 30.3413 224.618 30.223 224.644 30.1923C224.679 30.1491 224.715 30.1218 224.73 30.1103C224.783 30.0713 224.835 30.0487 224.837 30.0478C224.854 30.0403 224.87 30.0335 224.884 30.0283C225.222 29.8965 227.569 29.1623 231.843 27.8642C236.301 26.5101 242.916 24.5263 249.819 22.8164C254.818 21.4549 259.892 20.1658 264.271 19.2519C269.848 18.0878 274.333 17.523 278.536 17.7705C282.748 18.0185 286.653 19.081 291.073 21.1396C297.371 24.0716 304.754 29.0443 310.235 33.5068C311.336 34.0466 312.364 34.57 313.293 35.0742C318.564 37.9359 320.808 40.2269 321.862 42.7031C322.382 43.9225 322.601 45.1652 322.854 46.4921C323.11 47.8288 323.405 49.2938 324.068 51.041L324.337 51.7148C325.76 55.1439 328.386 59.4137 330.546 61.8213C331.707 63.116 332.656 63.782 333.438 63.9287C334.067 64.0468 334.689 63.8389 335.351 63.0761C335.447 59.9769 336.185 57.0449 336.975 55.1035C337.223 54.4933 337.48 53.9717 337.727 53.5634C337.964 53.1706 338.22 52.8333 338.483 52.6435C338.612 52.5509 338.816 52.4394 339.062 52.4638C339.349 52.4925 339.531 52.6833 339.625 52.8671C339.711 53.0365 339.746 53.2355 339.76 53.4277C339.774 53.6282 339.767 53.8638 339.74 54.1308C339.636 55.184 339.216 56.935 338.623 58.6836C338.032 60.4273 337.246 62.2421 336.381 63.3935C336.369 63.4097 336.355 63.4245 336.343 63.4404C336.333 64.0731 336.351 64.7111 336.404 65.3466C336.574 67.364 337.091 69.3674 337.908 71.5527C338.646 71.8647 339.403 72.182 340.182 72.5029C345.944 74.8788 352.85 77.4904 360.116 79.9707C360.395 79.5328 360.808 79.2127 361.327 79.0752C362.121 78.865 363.041 79.116 363.899 79.6855C364.372 79.9992 364.84 80.4208 365.285 80.9443C365.004 79.832 364.649 78.5742 364.214 77.164C361.997 69.9778 357.755 58.9391 354.256 51.4296C352.509 47.6799 350.946 44.8096 349.883 42.9423C349.35 42.0073 348.945 41.3265 348.697 40.9023C348.579 40.7002 348.485 40.5359 348.438 40.4375C348.428 40.4143 348.408 40.3714 348.394 40.3232C348.388 40.3043 348.371 40.2448 348.371 40.1689C348.371 40.1226 348.38 39.8341 348.672 39.706C348.795 39.652 348.907 39.6602 348.969 39.6718C349.031 39.6837 349.078 39.705 349.104 39.7177C349.154 39.743 349.191 39.7718 349.206 39.7841L349.29 39.8632L349.432 40.0254C349.846 40.5224 350.822 41.8293 351.987 43.5644C353.329 45.5623 354.946 48.1673 356.293 50.8457C358.985 56.2007 360.58 61.8284 362.526 68.1796C363.946 72.8113 365.572 77.8983 366.696 82.1455C368.298 82.6574 369.905 83.16 371.511 83.6455C376.666 85.2042 381.799 86.604 386.523 87.7705C386.26 87.2386 386.006 86.7202 385.765 86.2187C384.565 83.7232 383.67 81.6364 383.307 80.5322C383.217 80.2603 383.15 80.0175 383.125 79.8339C383.115 79.7581 383.099 79.6143 383.143 79.4716C383.167 79.3922 383.228 79.2563 383.376 79.163C383.534 79.0637 383.697 79.0709 383.802 79.0976C383.97 79.1405 384.092 79.2552 384.145 79.3066C384.218 79.3777 384.294 79.4676 384.371 79.5673C384.527 79.7686 384.723 80.0543 384.958 80.4267C385.897 81.9159 387.58 84.9506 389.211 88.2197C389.248 88.2949 389.285 88.3708 389.322 88.4463C391.328 88.9177 393.239 89.3407 395.023 89.707C394.929 89.5892 394.838 89.4718 394.753 89.3535C394.338 88.7741 394.04 88.1841 393.874 87.6357C393.71 87.0957 393.662 86.5528 393.801 86.0908C393.929 85.6653 394.214 85.3299 394.64 85.167C392.41 83.557 390.083 81.9745 388.186 80.7148C386.163 79.3718 384.647 78.4059 383.839 77.8828C383.637 77.7525 383.477 77.6473 383.364 77.5713C383.308 77.5336 383.259 77.5001 383.222 77.4726C383.203 77.4592 383.183 77.4436 383.163 77.4277C383.158 77.4237 383.103 77.3816 383.058 77.3193C383.044 77.3005 383.016 77.2581 382.993 77.1982C382.973 77.1453 382.93 77.0037 382.995 76.8379C383.069 76.6497 383.224 76.5691 383.317 76.541C383.401 76.5157 383.471 76.5195 383.499 76.5214C383.559 76.5257 383.606 76.5399 383.619 76.5439C383.64 76.5502 383.657 76.5568 383.669 76.5615C383.712 76.5785 383.763 76.6033 383.811 76.6269C383.913 76.6781 384.069 76.7601 384.275 76.8711L386.116 77.8681C388.442 79.1239 391.931 80.9724 393.978 81.7568C394.653 82.0161 395.141 82.1467 395.483 82.1875C395.837 82.2295 395.951 82.1655 395.971 82.1504C395.974 82.1485 396.02 82.1183 396.024 81.9345C396.029 81.7418 395.982 81.4725 395.887 81.1201C395.508 79.7257 394.568 77.7791 392.899 76.6367C391.223 75.4884 388.729 75.0976 386.694 75.2412C385.687 75.3122 384.801 75.5135 384.001 75.6933C383.23 75.8664 382.472 76.0391 381.821 75.9814C381.081 75.9156 380.534 75.5587 379.731 74.7089C378.939 73.8702 377.809 72.4523 375.917 70.1201C372.115 65.4336 365.142 56.9364 360.617 51.1796C356.068 45.3924 354.028 42.4262 351.992 40.1972C350.979 39.0878 349.982 38.1765 348.859 37.0752C347.742 35.9796 346.53 34.7232 345.134 32.9609C344.438 32.0828 343.698 31.0813 342.919 30.0293C342.138 28.9744 341.315 27.8647 340.446 26.7597C338.707 24.5471 336.799 22.3736 334.711 20.7197C330.538 17.4147 325.632 16.1847 314.672 12.9111C303.748 9.64841 286.997 4.398 277.493 2.26754ZM43.127 119.913C43.508 120.262 43.909 120.587 44.3291 120.896C48.7189 124.126 55.0939 125.584 64.8145 126.737C71.7117 127.555 80.2199 128.214 88.249 128.862C88.0456 128.74 87.8455 128.617 87.6504 128.49C87.2255 128.215 86.8225 127.928 86.4385 127.634C72.9073 126.03 59.0342 123.816 46.5254 120.771C45.3811 120.493 44.248 120.206 43.127 119.913ZM79.9639 18.9189C71.4412 20.5138 63.7956 27.054 56.7822 41.2548C48.9476 57.1199 41.9716 82.4145 39.7412 97.6308C38.626 105.236 38.7057 110.265 39.5947 113.784C40.1001 115.785 40.8703 117.303 41.8438 118.537C43.4554 118.973 45.0958 119.394 46.7617 119.8C58.7667 122.722 72.0413 124.875 85.0645 126.46C81.1289 122.708 79.7865 117.605 79.4912 110.88C79.1388 102.856 80.266 92.3771 84.9102 81.1992C89.5468 70.0393 97.6917 58.178 104.772 51.4912C108.323 48.1383 111.6 46.0915 114.16 44.5088C115.446 43.7139 116.528 43.0493 117.387 42.3945C118.245 41.7403 118.836 41.1276 119.171 40.4589C119.286 40.229 119.371 39.9849 119.43 39.7285C119.125 39.585 118.822 39.4421 118.521 39.2988C111.242 35.8358 104.978 32.4227 99.083 29.1504C93.1846 25.8763 87.6618 22.748 81.8428 19.8408C81.2194 19.5294 80.593 19.2219 79.9639 18.9189ZM261.997 118.937C260.789 118.972 259.398 119.087 257.894 119.23C258.358 119.283 258.805 119.336 259.232 119.388C266.068 120.218 267.78 120.925 269.73 121.598C271.637 122.255 273.77 122.874 275.995 123.182C278.213 123.488 280.53 123.489 283.369 122.874C286.252 122.25 289.606 121.014 293.295 119.95C293.502 119.891 293.71 119.834 293.918 119.775C290.325 119.512 287.8 119.399 284.182 119.463C280.265 119.532 274.98 119.812 271.324 119.636C269.485 119.548 268.046 119.344 266.634 119.18C265.221 119.015 263.815 118.886 261.997 118.937ZM310.197 119.12C308.643 118.939 306.72 118.836 304.809 118.905C303.446 118.954 302.087 119.091 300.738 119.294C303.488 119.494 306.265 119.665 308.465 119.686C310.21 119.702 311.569 119.621 312.436 119.49C312.358 119.472 312.276 119.452 312.189 119.434C311.654 119.319 310.974 119.21 310.197 119.12ZM237.757 118.498C240.207 118.843 242.862 119.072 245.698 119.088C242.986 118.868 240.264 118.666 237.757 118.498ZM63.252 13.8925C56.556 13.5035 49.1438 15.3578 40.6006 21.5634C32.0382 27.7839 22.3532 38.3658 14.7227 49.9004C7.08403 61.4472 1.56093 73.8629 1.21973 83.7461C0.880997 93.5584 5.65505 100.949 13.8291 106.711C20.6586 111.525 29.839 115.18 40.3242 118.118C39.6121 116.986 39.0348 115.651 38.625 114.029C37.6882 110.321 37.6288 105.138 38.751 97.4853C40.9932 82.1881 47.9957 56.7898 55.8857 40.8125C62.6284 27.1597 70.07 20.2925 78.4795 18.2168C73.6843 16.0022 68.6865 14.2083 63.252 13.8925ZM366.992 83.291C367.135 83.8574 367.265 84.4055 367.384 84.9316C367.953 86.695 368.274 88.708 368.171 90.5918C368.208 92.7819 367.811 94.2265 367.337 95.5302C366.974 96.5263 366.636 97.2921 366.631 98.1699C366.626 99.0078 366.933 100.003 368.045 101.361C370.308 104.128 375.725 108.183 380.584 110.306C383 111.361 385.263 111.93 387.198 112.089C389.142 112.248 390.718 111.99 391.791 111.432C393.864 110.352 394.289 107.999 394.116 105.091C394.049 103.963 393.894 102.799 393.661 101.655C393.648 101.63 393.635 101.604 393.622 101.578C393.532 101.909 393.391 102.193 393.189 102.419C392.785 102.872 392.226 103.007 391.667 102.942C391.122 102.879 390.545 102.628 389.995 102.27C388.894 101.555 387.781 100.336 386.897 99.0332C386.016 97.7322 385.32 96.283 385.105 95.0761C384.887 93.8477 385.163 92.8339 385.799 92.1709C386.432 91.5104 387.355 91.2714 388.27 91.4629C388.317 91.4728 388.364 91.4839 388.411 91.4961C387.966 90.6322 387.531 89.7768 387.112 88.9453C382.141 87.7347 376.691 86.2562 371.222 84.6025C369.812 84.1762 368.4 83.738 366.992 83.291ZM389.891 89.6054C390.814 91.5141 391.688 93.4527 392.36 95.167C392.572 95.528 392.777 95.9068 392.967 96.3027C393.686 97.8014 394.242 99.5414 394.614 101.325C394.708 101.513 394.802 101.697 394.892 101.877C395.996 104.109 396.689 105.674 397.349 106.708C397.673 107.216 397.963 107.55 398.251 107.756C398.525 107.952 398.816 108.046 399.182 108.041C399.97 108.031 401.104 107.564 402.287 106.734C403.453 105.917 404.593 104.799 405.395 103.598L405.54 103.373C406.247 102.246 406.647 101.053 406.66 99.7597C406.674 98.3778 406.247 96.837 405.208 95.0947C404.875 94.537 404.48 93.961 404.042 93.3808C404.022 93.5222 403.984 93.6604 403.913 93.789C403.795 94.004 403.615 94.1613 403.404 94.2627C403.003 94.4554 402.494 94.4482 401.977 94.3408C400.932 94.1239 399.528 93.4282 398.209 92.5371C397.516 92.069 396.83 91.5336 396.214 90.9658C394.263 90.5832 392.14 90.1259 389.891 89.6054ZM229.336 93.0224C228.173 93.1058 227.045 93.1755 225.985 93.2412C224.003 93.364 222.28 93.4767 220.841 93.749C219.491 94.0044 218.45 94.3907 217.703 95.0088L217.558 95.1357C216.036 96.5313 215.68 99.2224 216.561 101.273C217.417 103.269 219.476 104.664 222.311 105.203C225.15 105.743 228.703 105.407 231.62 104.585C234.533 103.763 236.735 102.477 238.047 100.905C239.375 99.314 239.763 97.4786 239.293 96.2754C239.069 95.7012 238.631 95.215 237.776 94.7802C236.906 94.3373 235.634 93.9639 233.795 93.6171C232.86 93.4408 231.79 93.2732 230.653 93.124C230.212 93.1021 229.773 93.0682 229.336 93.0224ZM388.064 92.4414C387.446 92.3119 386.887 92.4809 386.521 92.8632C386.156 93.2432 385.913 93.9077 386.09 94.9004C386.27 95.9147 386.884 97.231 387.726 98.4726C388.566 99.7118 389.59 100.814 390.54 101.432C391.016 101.741 391.444 101.91 391.781 101.949C392.105 101.987 392.308 101.904 392.443 101.753C392.597 101.581 392.746 101.228 392.746 100.561C392.746 100.317 392.724 100.039 392.681 99.7255C391.847 98.1043 390.915 96.3199 389.969 94.5029C389.7 93.9864 389.43 93.467 389.161 92.9482C388.779 92.6847 388.411 92.5139 388.064 92.4414ZM477.539 76.7461C470.067 77.1222 462.93 77.5424 457.178 78.2607C450.204 79.1313 445.322 80.431 442.352 82.0927C440.871 82.9213 439.901 83.8201 439.369 84.7646C438.845 85.6953 438.724 86.7103 439.01 87.8359C439.59 90.123 441.863 92.8756 446.146 95.1445C450.413 97.4048 456.62 99.1514 464.936 99.458C473.258 99.7647 483.681 98.6281 493.14 96.7734C502.613 94.9158 511.046 92.353 515.419 89.8398C517.616 88.5771 518.672 87.3912 518.94 86.3671C519.191 85.4094 518.787 84.4107 517.526 83.3769C516.263 82.3414 514.232 81.3579 511.514 80.4873C508.804 79.6195 505.446 78.8751 501.561 78.2978C494.666 77.2735 486.142 76.781 477.539 76.7461ZM338.42 72.8525C339.028 74.3272 339.76 75.8955 340.604 77.6103C343.001 82.4751 346.231 88.3781 350.069 92.1386C353.9 95.8933 358.31 97.4868 361.437 97.207C364.492 96.9334 366.414 94.858 366.994 91.9765C367.086 91.5234 367.143 91.051 367.171 90.5673C367.154 89.712 367.068 88.7301 366.885 87.5791C366.714 87.9908 366.436 88.3194 366.003 88.455C365.502 88.6121 364.948 88.4569 364.464 88.2216C363.961 87.9771 363.431 87.5961 362.925 87.1494C361.913 86.2571 360.92 85.0355 360.343 83.9091C359.776 82.8023 359.598 81.7587 359.758 80.9043C352.485 78.4207 345.572 75.8073 339.801 73.4277C339.333 73.2348 338.873 73.0422 338.42 72.8525ZM398.261 91.3505C398.428 91.4729 398.597 91.5933 398.769 91.7089C400.044 92.5708 401.321 93.1831 402.18 93.3613C402.614 93.4514 402.861 93.4138 402.971 93.3613C403.015 93.34 403.03 93.3207 403.037 93.3076C403.046 93.2915 403.063 93.2479 403.059 93.1552C403.048 92.9541 402.936 92.6116 402.614 92.1171C402.594 92.0862 402.572 92.0553 402.551 92.0234C401.994 91.9516 401.408 91.8719 400.793 91.7773C399.998 91.6551 399.153 91.5112 398.261 91.3505ZM388.387 89.2519C388.888 90.2396 389.41 91.2548 389.938 92.2744C389.993 92.3158 390.046 92.3604 390.1 92.4043C389.638 91.3867 389.141 90.3424 388.633 89.3105C388.551 89.2911 388.469 89.2715 388.387 89.2519ZM322.618 49.8681C322.502 50.5791 322.294 51.2877 321.984 51.9873C320.611 55.0917 317.284 57.9447 313.957 59.0957C310.624 60.2487 307.264 59.6864 303.71 59.4931C301.906 59.395 299.999 59.3827 297.849 59.3486C295.702 59.3146 293.325 59.2593 290.606 59.0732C285.196 58.7029 278.35 57.8123 274.336 56.122C272.303 55.2658 270.993 54.2061 270.139 53.3203C269.788 52.9567 269.518 52.6232 269.309 52.3535C269.235 52.9306 269.107 53.7486 268.714 54.4677L268.63 54.6132C268.15 55.3982 267.364 55.9719 266.347 56.415C265.33 56.8576 264.044 57.1866 262.51 57.4609C259.396 58.0175 255.34 58.3461 251.603 59.3291C247.9 60.3029 244.585 61.9083 240.618 63.7666C238.566 64.7274 236.343 65.7518 234.049 66.6972C236.679 67.0636 238.664 68.1436 240.03 69.6826C242.066 71.9759 242.697 75.2775 241.21 77.9072C239.739 80.5069 236.275 82.2983 232.431 82.9033C228.691 83.4918 224.442 82.9827 221.23 80.9306L220.923 80.7275C219.303 79.618 217.977 78.0968 217.211 76.5625C216.635 75.4088 216.345 74.1764 216.565 73.0957C216.329 73.3076 216.111 73.5217 215.914 73.7382C214.631 75.1509 214.209 76.6647 214.313 78.2207C214.42 79.7987 215.07 81.4428 215.98 83.0732C217.794 86.3208 220.512 89.2951 224.43 90.8476C225.497 91.2706 226.657 91.5878 227.864 91.8046C228.47 91.8619 229.072 91.9261 229.663 91.9951C232.682 91.7707 235.873 91.4416 238.702 90.789C239.418 90.6238 240.112 90.436 240.785 90.2334C243.46 88.8615 245.494 86.6986 246.665 83.4609L246.811 83.041C247.514 80.9136 247.885 78.3594 248.101 75.7939C248.331 73.0557 248.383 70.3593 248.488 68.1748C248.593 66.0113 248.751 64.3502 249.133 63.0683C249.522 61.76 250.151 60.8229 251.193 60.1357C252.21 59.4651 253.58 59.0579 255.32 58.8222C257.065 58.5859 259.226 58.5169 261.854 58.5517C267.093 58.6223 274.338 59.111 281.956 59.3545C289.582 59.5982 297.725 59.5993 303.996 60.124C310.297 60.6524 314.749 61.711 320.055 63.7822C322.699 64.8142 325.555 66.0987 328.831 67.5693C331.189 68.6278 333.769 69.7841 336.654 71.0195C335.994 69.0997 335.562 67.2768 335.407 65.4306C335.379 65.0962 335.363 64.7611 335.353 64.4267C334.719 64.8768 334.021 65.0549 333.254 64.9111C332.126 64.6996 330.987 63.8097 329.802 62.4882C327.412 59.8235 324.514 55.0302 323.134 51.3964C322.931 50.8632 322.763 50.3538 322.618 49.8681ZM396.177 86.2929C395.628 86.058 395.274 86.0327 395.072 86.0781C394.906 86.1157 394.811 86.2054 394.759 86.3789C394.697 86.5833 394.699 86.9109 394.831 87.3457C394.96 87.7722 395.203 88.2641 395.565 88.7705L395.708 88.9619C395.985 89.3222 396.319 89.6842 396.689 90.04C398.23 90.3389 399.656 90.5909 400.945 90.789C401.176 90.8246 401.404 90.8555 401.626 90.8877C401.468 90.7181 401.297 90.5411 401.109 90.3574C399.911 89.1808 398.135 87.7529 396.177 86.2929ZM385.63 83.5634C385.938 84.2462 386.285 84.9928 386.666 85.7851C387.018 86.5182 387.399 87.2883 387.798 88.0839C387.883 88.1044 387.967 88.1242 388.052 88.1445C387.207 86.4698 386.363 84.8818 385.63 83.5634ZM360.72 81.2324C360.652 81.802 360.777 82.5648 361.232 83.4541C361.743 84.4514 362.652 85.576 363.586 86.3994C364.052 86.8104 364.506 87.1302 364.901 87.3222C365.315 87.5235 365.575 87.5405 365.704 87.5C365.787 87.4738 365.93 87.384 366.032 86.9873C366.135 86.5868 366.165 85.9721 366.082 85.0996C366.047 84.7283 365.988 84.3177 365.913 83.8662C365.772 83.5477 365.623 83.2447 365.466 82.9619C365.428 82.8937 365.386 82.8284 365.348 82.7627C363.796 82.2611 362.25 81.7503 360.72 81.2324ZM209.155 79.7431C207.603 80.7121 205.175 82.4953 202.726 84.8505C204.203 83.7023 205.611 82.6628 206.745 81.7724C207.761 80.9744 208.564 80.2899 209.155 79.7431ZM231.87 67.5605C230.446 68.0988 229.007 68.591 227.574 69.0019C226.446 69.3255 225.324 69.5989 224.267 69.8574C223.205 70.117 222.212 70.361 221.322 70.6289C220.431 70.8971 219.667 71.1829 219.06 71.5185C218.452 71.8543 218.032 72.2229 217.789 72.6406C217.306 73.4723 217.409 74.7222 218.105 76.1162C218.791 77.4884 219.999 78.8823 221.488 79.9023C224.465 81.9403 228.589 82.4951 232.275 81.915C235.978 81.3323 239.083 79.634 240.339 77.415C241.577 75.2256 241.09 72.3832 239.282 70.3466C237.794 68.6703 235.386 67.5329 231.87 67.5605ZM363.347 80.5185C362.624 80.039 362 79.9314 361.583 80.042C361.411 80.0875 361.254 80.1782 361.119 80.3125C362.186 80.6732 363.26 81.0295 364.339 81.3828C364.008 81.0236 363.673 80.7353 363.347 80.5185ZM338.76 53.8086C338.706 53.8857 338.646 53.9756 338.583 54.08C338.37 54.4331 338.135 54.9058 337.901 55.4804C337.306 56.9427 336.739 59.0108 336.482 61.2793C336.917 60.4083 337.327 59.391 337.676 58.3623C338.257 56.648 338.652 54.9781 338.745 54.0322C338.753 53.9509 338.756 53.8763 338.76 53.8086ZM354.41 49.4248C354.656 49.9337 354.909 50.4605 355.163 51.0068C356.166 53.1581 357.226 55.5974 358.284 58.1513C357.565 56.1382 356.788 54.1918 355.883 52.2851L355.399 51.2949C355.083 50.6655 354.75 50.0399 354.41 49.4248ZM311.862 36.5908C308.673 35.1901 305.419 34.8212 303.171 35.289C302.056 35.5211 301.22 35.9517 300.635 36.5761C300.052 37.1982 299.679 38.0562 299.563 39.2187C299.329 41.5848 300.183 45.011 302.722 47.1298C303.994 48.1908 305.717 48.9497 307.493 49.4228C309.267 49.8953 311.056 50.073 312.432 50.0019C313.795 49.9314 314.734 49.6174 315.467 49.1533C316.207 48.6845 316.775 48.0394 317.369 47.2402C317.961 46.443 318.455 45.6533 318.321 44.5009C318.183 43.311 317.361 41.6266 314.963 39.1201C314.346 38.4751 313.628 37.78 312.829 37.0507C312.508 36.8883 312.186 36.733 311.862 36.5908ZM317.205 38.7138C318.4 39.6906 319.475 40.7858 320.345 41.9541C319.698 40.9214 318.726 39.8664 317.205 38.7138ZM110.941 28.3125C103.92 23.3118 92.7825 18.0104 82.9551 18.5595C82.54 18.5827 82.1268 18.6167 81.7158 18.6611C81.9076 18.756 82.0991 18.8509 82.29 18.9463C88.1337 21.8658 93.6809 25.0084 99.5684 28.2763C105.459 31.5461 111.699 34.9473 118.949 38.3964C119.135 38.4847 119.322 38.5718 119.509 38.6601C119.446 37.6806 119.039 36.5561 118.229 35.2988C116.87 33.1909 114.444 30.8072 110.941 28.3125ZM278.478 18.7685C275.408 18.5878 272.161 18.8524 268.376 19.4892C279.566 18.7142 285.518 22.0339 292.58 25.3847C296.923 27.4454 301.769 29.5581 306.078 31.541C301.25 27.9473 295.604 24.3522 290.65 22.0459C286.324 20.031 282.543 19.0079 278.478 18.7685Z" fill="#182565"></path></svg>