<svg xmlns="http://www.w3.org/2000/svg" width="154" height="835" viewBox="0 0 154 835" fill="none"><g clip-path="url(#clip0_17434_733)"><mask id="mask0_17434_733" style="mask-type:luminance" maskUnits="userSpaceOnUse" x="-1" y="-300" width="637" height="1029"><path d="M37.1468 308.762L472.782 728.881C455.996 712.695 442.906 694.226 437.867 672.685C436.309 666.024 435.521 659.073 435.63 651.801C436.067 622.15 452.094 589.965 483.26 556.134C492.968 545.593 503.492 535.399 513.673 525.54C530.1 509.605 547.102 493.138 561.141 474.774C573.305 458.871 599.576 418.705 590.319 379.132C589.898 377.331 589.403 375.533 588.829 373.737C583.725 357.737 572.999 344.671 562.612 332.033C556.206 324.228 549.573 316.15 544.321 307.458C538.709 298.17 534.649 287.983 532.153 277.307C526.047 251.213 529.27 222.195 541.942 196.199C559.778 159.557 595.543 130.621 635.291 120.661L199.656 -299.457C159.909 -289.495 124.143 -260.561 106.307 -223.919C93.6353 -197.923 90.4137 -168.906 96.5177 -142.812C99.016 -132.136 103.076 -121.95 108.686 -112.661C113.938 -103.969 120.573 -95.8909 126.977 -88.0856C137.364 -75.4481 148.089 -62.3794 153.195 -46.3801C153.768 -44.5852 154.262 -42.7852 154.684 -40.9851C163.942 -1.41132 137.67 38.754 125.506 54.6569C111.468 73.0213 94.4652 89.4883 78.0383 105.424C67.858 115.282 57.3336 125.476 47.6254 136.017C16.4617 169.847 0.432384 202.034 -0.00498115 231.684C-0.113761 238.957 0.674354 245.907 2.2327 252.568C7.27047 274.108 20.3605 292.574 37.1468 308.762Z" fill="white"></path></mask><g mask="url(#mask0_17434_733)"><path d="M466.777 -39.5384C427.066 -29.5895 391.332 -0.683307 373.514 35.9252C360.856 61.8973 357.64 90.889 363.742 116.962C366.239 127.629 370.294 137.807 375.903 147.088C381.152 155.773 387.781 163.845 394.181 171.644C404.559 184.272 415.277 197.328 420.381 213.316C420.954 215.109 421.447 216.906 421.869 218.705C431.123 258.245 404.878 298.373 392.726 314.261C378.701 332.608 361.714 349.059 345.303 364.979C335.132 374.828 324.617 385.013 314.918 395.544C283.784 429.341 267.772 461.498 267.338 491.123C267.23 498.389 268.018 505.334 269.576 511.989C274.614 533.512 287.696 551.966 304.469 568.14L337.951 600.43C321.178 584.256 308.096 565.802 303.06 544.278C301.502 537.623 300.714 530.678 300.822 523.412C301.256 493.787 317.267 461.631 348.403 427.833C358.102 417.302 368.616 407.117 378.787 397.269C395.198 381.349 412.185 364.897 426.21 346.55C438.362 330.662 464.607 290.534 455.353 250.994C454.933 249.195 454.438 247.399 453.864 245.603C448.763 229.617 438.045 216.561 427.665 203.931C421.265 196.132 414.635 188.06 409.386 179.375C403.778 170.094 399.721 159.917 397.225 149.249C391.122 123.179 394.338 94.1853 406.998 68.2125C424.815 31.604 460.549 2.69588 500.261 -7.25115L466.777 -39.5384Z" fill="#A7092A"></path><path d="M400.625 -105.272C360.914 -95.3231 325.179 -66.4169 307.362 -29.8084C294.704 -3.83624 291.488 25.1555 297.589 51.2284C300.087 61.895 304.142 72.0735 309.75 81.3544C314.999 90.0395 321.629 98.111 328.029 105.91C338.407 118.539 349.125 131.596 354.229 147.582C354.802 149.376 355.294 151.172 355.717 152.971C364.973 192.511 338.725 232.64 326.573 248.528C312.548 266.875 295.562 283.326 279.15 299.246C268.979 309.095 258.465 319.279 248.766 329.81C217.632 363.607 201.619 395.764 201.185 425.39C201.077 432.656 201.866 439.6 203.423 446.256C208.462 467.778 221.543 486.232 238.315 502.407L271.797 534.697C255.024 518.523 241.942 500.069 236.906 478.546C235.348 471.89 234.56 464.945 234.668 457.679C235.102 428.054 251.112 395.898 282.248 362.1C291.947 351.569 302.462 341.384 312.633 331.536C329.044 315.616 346.03 299.165 360.055 280.817C372.207 264.93 398.453 224.801 389.199 185.261C388.779 183.462 388.284 181.666 387.71 179.87C382.609 163.884 371.891 150.828 361.511 138.2C355.111 130.401 348.479 122.33 343.233 113.644C337.624 104.363 333.566 94.1835 331.072 83.5181C324.968 57.4458 328.186 28.4536 340.844 2.48145C358.662 -34.1271 394.396 -63.0352 434.107 -72.9822L400.625 -105.272Z" fill="#A7092A"></path><path d="M334.467 -171.011C294.754 -161.061 259.021 -132.156 241.204 -95.547C228.546 -69.5749 225.33 -40.5832 231.431 -14.5103C233.929 -3.84366 237.984 6.33489 243.592 15.6158C248.841 24.3008 255.471 32.3723 261.871 40.1716C272.249 52.7999 282.967 65.8578 288.07 81.8438C288.644 83.6372 289.137 85.4357 289.559 87.2343C298.813 126.775 272.568 166.903 260.416 182.791C246.391 201.138 229.404 217.589 212.993 233.509C202.822 243.358 192.308 253.542 182.609 264.073C151.475 297.871 135.462 330.028 135.028 359.653C134.92 366.919 135.708 373.863 137.266 380.519C142.304 402.042 155.386 420.496 172.157 436.67L205.646 468.968C188.875 452.793 175.792 434.34 170.753 412.818C169.196 406.162 168.407 399.217 168.515 391.951C168.949 362.326 184.96 330.17 216.096 296.372C225.795 285.841 236.309 275.656 246.48 265.808C262.891 249.886 279.878 233.436 293.903 215.089C306.055 199.201 332.301 159.073 323.047 119.533C322.626 117.734 322.132 115.938 321.558 114.142C316.457 98.1557 305.739 85.0997 295.359 72.472C288.957 64.6733 282.327 56.6018 277.08 47.9162C271.472 38.6353 267.414 28.4555 264.919 17.7901C258.816 -8.28217 262.034 -37.2745 274.692 -63.2466C292.509 -99.8552 328.243 -128.763 367.955 -138.71L334.467 -171.011Z" fill="#A7092A"></path><path d="M268.315 -236.743C228.604 -226.794 192.87 -197.888 175.052 -161.279C162.394 -135.307 159.178 -106.315 165.28 -80.2424C167.777 -69.5757 171.832 -59.3972 177.441 -50.1163C182.689 -41.4312 189.319 -33.3597 195.719 -25.5604C206.097 -12.9321 216.816 0.12576 221.919 16.1118C222.492 17.9052 222.985 19.7037 223.408 21.5023C232.662 61.0429 206.416 101.171 194.264 117.059C180.239 135.406 163.253 151.857 146.841 167.777C136.67 177.626 126.156 187.81 116.457 198.341C85.3228 232.139 69.3102 264.296 68.8762 293.921C68.7664 301.187 69.5565 308.131 71.1142 314.787C76.1525 336.31 89.234 354.764 106.005 370.938L139.494 403.234C122.721 387.06 109.639 368.606 104.601 347.084C103.043 340.428 102.255 333.483 102.363 326.217C102.797 296.592 118.808 264.436 149.944 230.638C159.642 220.107 170.157 209.923 180.328 200.074C196.739 184.154 213.726 167.703 227.751 149.355C239.903 133.468 266.148 93.3396 256.894 53.7989C256.474 51.9997 255.979 50.2037 255.405 48.4085C250.304 32.4218 239.586 19.3658 229.206 6.73623C222.804 -1.06242 216.174 -9.13393 210.927 -17.8196C205.319 -27.1005 201.261 -37.2803 198.766 -47.9457C192.663 -74.0161 195.881 -103.01 208.539 -128.982C226.356 -165.591 262.09 -194.499 301.802 -204.446L268.315 -236.743Z" fill="#A7092A"></path><path d="M202.165 -302.473C162.452 -292.523 126.72 -263.618 108.902 -227.009C96.2442 -201.037 93.0283 -172.045 99.1298 -145.972C101.627 -135.306 105.684 -125.128 111.291 -115.846C116.54 -107.161 123.169 -99.0898 129.569 -91.2905C139.949 -78.6629 150.666 -65.6043 155.769 -49.6183C156.342 -47.8249 156.835 -46.0264 157.258 -44.2278C166.512 -4.68717 140.266 35.4408 128.114 51.3287C114.089 69.6758 97.1028 86.1269 80.6914 102.047C70.5206 111.896 60.006 122.08 50.3071 132.611C19.173 166.409 3.16044 198.566 2.72648 228.191C2.61854 235.457 3.4067 242.401 4.96442 249.057C10.0027 270.579 23.0843 289.033 39.8557 305.208C49.9015 314.895 63.2972 327.813 73.3437 337.502C56.5723 321.328 43.4888 302.874 38.4505 281.352C36.8928 274.696 36.1046 267.751 36.2125 260.486C36.6465 230.86 52.6572 198.704 83.7931 164.906C93.4921 154.375 104.007 144.191 114.177 134.342C130.588 118.42 147.575 101.971 161.6 83.6235C173.752 67.7337 199.998 27.6076 190.744 -11.933C190.323 -13.7322 189.829 -15.5282 189.255 -17.3235C184.154 -33.3101 173.436 -46.3662 163.056 -58.9939C156.654 -66.7925 150.024 -74.864 144.777 -83.5497C139.169 -92.8306 135.111 -103.01 132.617 -113.676C126.514 -139.746 129.731 -168.74 142.389 -194.713C160.206 -231.321 195.94 -260.229 235.652 -270.176L202.165 -302.473Z" fill="#A7092A"></path><path d="M367.547 -138.14C327.834 -128.191 292.101 -99.2853 274.284 -62.6768C261.626 -36.7047 258.41 -7.71303 264.511 18.3599C267.009 29.0265 271.064 39.2051 276.672 48.486C281.921 57.171 288.551 65.2425 294.951 73.0418C305.329 85.6701 316.047 98.7261 321.15 114.712C321.723 116.506 322.216 118.304 322.639 120.103C331.893 159.643 305.647 199.771 293.495 215.659C279.47 234.006 262.484 250.457 246.072 266.377C235.901 276.226 225.387 286.411 215.688 296.941C184.554 330.739 168.541 362.896 168.107 392.521C167.999 399.787 168.788 406.731 170.345 413.387C175.384 434.91 188.465 453.364 205.239 469.538C215.285 479.227 228.681 492.145 238.727 501.832C221.955 485.657 208.872 467.204 203.835 445.681C202.278 439.025 201.489 432.081 201.597 424.815C202.031 395.189 218.042 363.033 249.178 329.235C258.877 318.704 269.391 308.52 279.562 298.671C295.973 282.749 312.96 266.3 326.985 247.953C339.137 232.065 365.383 191.937 356.129 152.396C355.708 150.597 355.214 148.801 354.64 147.008C349.539 131.021 338.821 117.963 328.441 105.335C322.041 97.536 315.409 89.4652 310.162 80.7795C304.554 71.4986 300.496 61.3189 298.001 50.6535C291.898 24.583 295.116 -4.41117 307.774 -30.3833C325.591 -66.9918 361.325 -95.8999 401.037 -105.847L367.547 -138.14Z" fill="white"></path><path d="M301.396 -203.872C261.683 -193.923 225.95 -165.017 208.133 -128.409C195.475 -102.437 192.259 -73.4449 198.36 -47.372C200.858 -36.7053 204.913 -26.5268 210.521 -17.2459C215.77 -8.56085 222.4 -0.489346 228.799 7.30994C239.178 19.9382 249.896 32.9961 254.999 48.9822C255.573 50.7755 256.066 52.574 256.488 54.3726C265.744 93.9126 239.497 134.041 227.345 149.929C213.32 168.276 196.333 184.727 179.922 200.647C169.751 210.496 159.236 220.681 149.538 231.212C118.402 265.01 102.391 297.166 101.957 326.791C101.849 334.057 102.637 341.002 104.195 347.657C109.233 369.18 122.315 387.634 139.088 403.808L172.57 436.098C155.797 419.924 142.715 401.47 137.679 379.946C136.121 373.291 135.333 366.346 135.441 359.08C135.875 329.455 151.886 297.299 183.022 263.501C192.721 252.97 203.235 242.785 213.406 232.936C229.817 217.016 246.804 200.565 260.829 182.218C272.981 166.33 299.226 126.202 289.973 86.6618C289.552 84.8626 289.057 83.0666 288.484 81.2713C283.382 65.2847 272.664 52.2287 262.284 39.5991C255.882 31.8005 249.252 23.7289 244.005 15.0432C238.397 5.76234 234.34 -4.41553 231.844 -15.0828C225.742 -41.1532 228.959 -70.1474 241.617 -96.1195C259.434 -132.728 295.168 -161.636 334.88 -171.583L301.396 -203.872Z" fill="white"></path><path d="M433.697 -72.4086C393.986 -62.4597 358.251 -33.5534 340.434 3.0551C327.776 29.0272 324.56 58.0189 330.661 84.0918C333.159 94.7584 337.214 104.937 342.822 114.218C348.071 122.903 354.701 130.974 361.101 138.774C371.479 151.402 382.197 164.46 387.3 180.444C387.873 182.237 388.366 184.036 388.789 185.835C398.043 225.375 371.797 265.503 359.645 281.391C345.62 299.738 328.634 316.189 312.222 332.109C302.052 341.958 291.537 352.143 281.838 362.673C250.704 396.471 234.691 428.628 234.258 458.253C234.15 465.519 234.938 472.463 236.495 479.119C241.534 500.642 254.615 519.096 271.387 535.27L304.878 567.568C288.105 551.394 275.023 532.94 269.985 511.417C268.427 504.761 267.639 497.817 267.747 490.551C268.181 460.926 284.191 428.769 315.327 394.971C325.026 384.441 335.541 374.256 345.712 364.407C362.122 348.485 379.11 332.036 393.135 313.689C405.286 297.801 431.532 257.673 422.278 218.132C421.858 216.333 421.363 214.537 420.79 212.744C415.689 196.757 404.97 183.699 394.59 171.072C388.19 163.272 381.559 155.201 376.312 146.516C370.703 137.235 366.646 127.057 364.151 116.39C358.048 90.3193 361.265 61.3251 373.923 35.353C391.741 -1.25552 427.475 -30.1636 467.186 -40.1106L433.697 -72.4086Z" fill="white"></path><path d="M235.244 -269.604C195.533 -259.656 159.798 -230.749 141.981 -194.141C129.323 -168.169 126.107 -139.177 132.209 -113.104C134.706 -102.437 138.761 -92.2588 144.369 -82.9779C149.618 -74.2929 156.248 -66.2214 162.648 -58.4221C173.026 -45.7938 183.744 -32.7378 188.847 -16.7517C189.42 -14.9584 189.914 -13.1599 190.336 -11.3613C199.59 28.1793 173.344 68.3073 161.192 84.1952C147.167 102.542 130.181 118.993 113.769 134.913C103.599 144.762 93.0841 154.947 83.3852 165.478C52.2511 199.275 36.2385 231.432 35.8046 261.057C35.6966 268.323 36.4848 275.268 38.0425 281.923C43.0808 303.446 56.1623 321.9 72.9357 338.074L106.418 370.364C89.6465 354.189 76.5631 335.736 71.5267 314.213C69.969 307.557 69.1808 300.612 69.2888 293.346C69.7227 263.721 85.7334 231.565 116.869 197.767C126.568 187.236 137.083 177.051 147.254 167.203C163.665 151.283 180.652 134.831 194.677 116.484C206.828 100.596 233.074 60.4685 223.82 20.9279C223.4 19.1287 222.905 17.3327 222.331 15.5374C217.23 -0.449217 206.512 -13.5052 196.131 -26.1348C189.73 -33.9334 183.1 -42.0049 177.853 -50.6906C172.245 -59.9715 168.187 -70.1513 165.692 -80.8167C159.589 -106.889 162.806 -135.881 175.464 -161.853C193.282 -198.462 229.016 -227.37 268.727 -237.317L235.244 -269.604Z" fill="white"></path><path d="M499.849 -6.67592C460.138 3.27298 424.403 32.1792 406.586 68.7878C393.928 94.7599 390.712 123.752 396.813 149.825C399.311 160.491 403.366 170.67 408.974 179.951C414.223 188.636 420.853 196.707 427.252 204.506C437.632 217.134 448.351 230.192 453.452 246.179C454.026 247.972 454.519 249.77 454.941 251.569C464.195 291.11 437.95 331.238 425.798 347.126C411.773 365.473 394.786 381.924 378.375 397.844C368.204 407.693 357.689 417.877 347.99 428.408C316.856 462.205 300.844 494.362 300.41 523.988C300.302 531.254 301.09 538.198 302.648 544.854C307.686 566.376 320.768 584.83 337.539 601.005L371.03 633.302C354.259 617.128 341.175 598.674 336.139 577.151C334.581 570.495 333.793 563.551 333.901 556.285C334.335 526.66 350.346 494.503 381.482 460.705C391.181 450.174 401.695 439.99 411.866 430.141C428.277 414.221 445.264 397.77 459.289 379.423C471.44 363.533 497.686 323.407 488.432 283.866C488.012 282.067 487.517 280.271 486.944 278.476C481.842 262.489 471.124 249.433 460.744 236.805C454.345 229.006 447.715 220.935 442.466 212.25C436.858 202.969 432.8 192.789 430.305 182.124C424.202 156.051 427.419 127.059 440.077 101.087C457.895 64.4784 493.629 35.5703 533.34 25.6233L499.849 -6.67592Z" fill="white"></path></g><mask id="mask1_17434_733" style="mask-type:luminance" maskUnits="userSpaceOnUse" x="38" y="313" width="548" height="505"><path d="M38.0517 313.603L473.911 733.983C488.932 748.47 506.866 761.127 524.66 772.528C544.566 785.286 566.877 799.59 585.068 817.134L149.21 396.756C131.018 379.212 108.708 364.908 88.8016 352.15C71.0078 340.749 53.0737 328.092 38.0517 313.603Z" fill="white"></path></mask><g mask="url(#mask1_17434_733)"><path d="M218.025 459.283C199.853 441.758 177.567 427.468 157.684 414.723C139.91 403.334 121.996 390.69 106.991 376.218L140.486 408.523C155.491 422.996 173.405 435.64 191.178 447.028C211.062 459.773 233.35 474.062 251.52 491.587L218.025 459.283Z" fill="#A7092A"></path><path d="M151.875 393.552C133.703 376.027 111.418 361.738 91.5341 348.992C73.7605 337.603 55.8465 324.959 40.8412 310.488L74.3352 342.791C89.341 357.264 107.255 369.908 125.028 381.295C144.912 394.04 167.197 408.33 185.369 425.855L151.875 393.552Z" fill="#A7092A"></path><path d="M251.104 492.153C232.932 474.628 210.646 460.338 190.763 447.593C172.989 436.204 155.075 423.56 140.07 409.088L173.558 441.387C188.564 455.86 206.478 468.504 224.251 479.891C244.134 492.637 266.42 506.926 284.592 524.451L251.104 492.153Z" fill="white"></path><path d="M184.953 426.421C166.781 408.896 144.496 394.606 124.612 381.861C106.839 370.472 88.9245 357.828 73.9193 343.356L107.407 375.655C122.413 390.128 140.327 402.772 158.1 414.159C177.984 426.905 200.27 441.194 218.441 458.719L184.953 426.421Z" fill="white"></path></g><mask id="mask2_17434_733" style="mask-type:luminance" maskUnits="userSpaceOnUse" x="77" y="397" width="548" height="813"><path d="M107.398 788.908L543.376 1209.43C529.117 1195.67 519.307 1179.27 515.216 1161.78C514.596 1159.13 514.109 1156.46 513.756 1153.77C507.655 1107.36 538.519 1062.78 568.38 1019.65C598.224 976.53 629.087 931.94 623.722 885.059C623.312 881.465 622.702 877.968 621.905 874.561C616.72 852.38 603.678 834.049 587.382 818.331L151.404 397.811C167.7 413.529 180.742 431.86 185.927 454.042C186.724 457.448 187.335 460.947 187.744 464.541C193.11 511.422 162.246 556.011 132.403 599.132C102.541 642.257 71.6784 686.849 77.7804 733.252C78.1333 735.944 78.6201 738.611 79.2387 741.261C83.3284 758.75 93.1359 775.152 107.398 788.908Z" fill="white"></path></mask><g mask="url(#mask2_17434_733)"><path d="M286.465 526.178C302.76 541.895 315.801 560.225 320.987 582.406C321.784 585.811 322.394 589.31 322.804 592.903C328.17 639.78 297.311 684.365 267.47 727.48C237.612 770.603 206.752 815.188 212.852 861.588C213.205 864.28 213.692 866.948 214.312 869.597C218.4 887.086 228.21 903.489 242.47 917.241L276.008 949.591C261.749 935.837 251.94 919.435 247.85 901.946C247.232 899.298 246.742 896.629 246.391 893.937C240.29 847.535 271.151 802.949 301.01 759.829C330.85 716.712 361.71 672.126 356.345 625.249C355.936 621.658 355.325 618.159 354.528 614.752C349.343 592.573 336.302 574.243 320.007 558.526L286.465 526.178Z" fill="#A7092A"></path><path d="M220.315 460.447C236.61 476.163 249.651 494.493 254.836 516.672C255.633 520.077 256.243 523.576 256.653 527.169C262.019 574.047 231.158 618.632 201.318 661.749C171.46 704.872 140.599 749.457 146.699 795.857C147.052 798.549 147.54 801.218 148.16 803.865C152.25 821.354 162.057 837.758 176.318 851.51L209.855 883.859C195.597 870.106 185.787 853.704 181.697 836.215C181.079 833.567 180.59 830.898 180.237 828.206C174.136 781.805 204.997 737.219 234.855 694.098C264.696 650.981 295.556 606.396 290.19 559.519C289.781 555.925 289.169 552.429 288.373 549.021C283.188 526.842 270.147 508.512 253.852 492.796L220.315 460.447Z" fill="#A7092A"></path><path d="M154.165 394.716C170.459 410.432 183.5 428.762 188.686 450.943C189.483 454.348 190.093 457.847 190.503 461.44C195.869 508.317 165.008 552.903 135.168 596.02C105.309 639.141 74.4494 683.728 80.5515 730.127C80.9045 732.819 81.3913 735.487 82.0099 738.136C86.1001 755.625 95.9077 772.028 110.168 785.781L143.705 818.128C129.447 804.375 119.637 787.973 115.547 770.484C114.929 767.836 114.44 765.167 114.088 762.475C107.988 716.073 138.848 671.487 168.705 628.367C198.545 585.25 229.406 540.665 224.04 493.788C223.631 490.196 223.018 486.698 222.223 483.29C217.038 461.111 203.997 442.781 187.701 427.063L154.165 394.716Z" fill="#A7092A"></path><path d="M319.544 559.049C335.839 574.766 348.88 593.095 354.065 615.274C354.862 618.68 355.472 622.179 355.882 625.772C361.248 672.649 330.387 717.234 300.547 760.351C270.689 803.474 239.828 848.06 245.928 894.459C246.281 897.151 246.768 899.819 247.387 902.468C251.477 919.957 261.285 936.36 275.545 950.113L309.082 982.461C294.824 968.707 285.014 952.305 280.924 934.816C280.304 932.169 279.816 929.499 279.463 926.807C273.363 880.406 304.223 835.82 334.082 792.699C363.922 749.582 394.783 704.997 389.417 658.12C389.007 654.526 388.397 651.029 387.6 647.622C382.415 625.443 369.374 607.113 353.079 591.397L319.544 559.049Z" fill="white"></path><path d="M253.394 493.317C269.688 509.033 282.73 527.363 287.915 549.542C288.711 552.947 289.322 556.446 289.731 560.04C295.099 606.916 264.239 651.502 234.398 694.619C204.54 737.739 173.679 782.325 179.78 828.727C180.133 831.419 180.62 834.086 181.24 836.735C185.329 854.225 195.138 870.627 209.398 884.38L242.93 916.723C228.671 902.969 218.862 886.567 214.771 869.078C214.152 866.431 213.664 863.762 213.311 861.07C207.21 814.668 238.071 770.082 267.929 726.961C297.77 683.845 328.628 639.26 323.264 592.38C322.855 588.789 322.242 585.29 321.447 581.882C316.262 559.703 303.221 541.374 286.925 525.655L253.394 493.317Z" fill="white"></path><path d="M187.241 427.583C203.535 443.299 216.577 461.629 221.762 483.81C222.559 487.215 223.169 490.714 223.579 494.307C228.945 541.185 198.084 585.77 168.244 628.887C138.386 672.01 107.527 716.595 113.628 762.995C113.981 765.687 114.467 768.354 115.086 771.004C119.176 788.493 128.984 804.896 143.244 818.648L176.775 850.991C162.515 837.238 152.707 820.835 148.617 803.346C147.997 800.699 147.51 798.03 147.157 795.338C141.056 748.936 171.917 704.351 201.775 661.23C231.616 618.113 262.476 573.527 257.11 526.65C256.701 523.059 256.089 519.561 255.293 516.153C250.108 493.974 237.067 475.644 220.772 459.928L187.241 427.583Z" fill="white"></path></g><mask id="mask3_17434_733" style="mask-type:luminance" maskUnits="userSpaceOnUse" x="106" y="793" width="582" height="469"><path d="M106.759 793.086L542.214 1213C552.191 1222.62 564.31 1230.96 578.153 1237.49C610.786 1252.92 648.463 1257.84 687.404 1261.89L251.949 841.971C213.006 837.924 175.332 833.004 142.697 817.578C128.855 811.044 116.735 802.706 106.759 793.086Z" fill="white"></path></mask><g mask="url(#mask3_17434_733)"><path d="M254.231 838.555C215.455 834.516 177.942 829.61 145.444 814.244C131.659 807.734 119.59 799.432 109.654 789.851L143.017 822.022C152.953 831.603 165.022 839.905 178.807 846.415C211.305 861.78 248.818 866.687 287.594 870.726L254.231 838.555Z" fill="#A7092A"></path><path d="M287.309 871.423C248.534 867.384 211.021 862.478 178.523 847.112C164.738 840.602 152.668 832.3 142.732 822.719L176.089 854.884C186.025 864.464 198.094 872.767 211.88 879.277C244.377 894.642 281.891 899.549 320.666 903.588L287.309 871.423Z" fill="white"></path></g><path d="M203.566 -301.636C162.814 -293.319 126.401 -263.823 108.223 -226.477C95.3226 -199.971 92.0421 -170.402 98.2468 -143.82C100.784 -132.947 104.909 -122.576 110.611 -113.116C115.931 -104.297 122.608 -96.1504 129.074 -88.2693C139.378 -75.7173 150.037 -62.741 155.042 -46.9884C155.601 -45.2331 156.084 -43.4695 156.496 -41.7101C165.595 -2.74367 139.615 36.919 127.604 52.6399C113.626 70.9346 96.658 87.3997 80.2449 103.322C70.0063 113.243 59.4246 123.5 49.6471 134.128C18.0489 168.47 1.78639 201.225 1.32724 231.477C1.20249 238.921 2.01806 246.05 3.60984 252.861C13.2667 294.232 51.8809 324.302 89.859 348.647C127.464 372.764 173.643 402.388 184.513 448.956C185.292 452.296 185.889 455.715 186.289 459.231C191.562 505.512 160.865 549.873 131.193 592.779C101.064 636.335 69.9149 681.361 76.108 728.583C76.4688 731.318 76.9596 734.049 77.5896 736.75C84.6253 766.892 108.258 793.828 142.276 809.894C174.992 825.364 212.77 830.286 251.816 834.336C213.347 828.416 175.739 823.51 143.274 808.169C109.732 792.328 86.4289 765.808 79.5091 736.165C78.8889 733.512 78.4014 730.837 78.0505 728.138C71.9515 681.634 102.865 636.942 132.776 593.718C162.669 550.498 193.584 505.806 188.221 458.825C187.812 455.226 187.2 451.72 186.404 448.305C175.387 401.104 128.896 371.313 91.0476 347.035C53.3622 322.87 15.0377 293.063 5.5097 252.242C3.95007 245.56 3.1625 238.587 3.27397 231.292C3.72228 201.545 19.7968 169.249 51.0443 135.299C60.778 124.72 71.3296 114.489 81.5363 104.596C98.0051 88.601 115.052 72.0767 129.129 53.6481C141.325 37.6877 167.67 -2.61469 158.405 -42.3134C157.984 -44.1198 157.489 -45.9229 156.914 -47.7253C151.804 -63.7752 141.058 -76.88 130.651 -89.5568C124.233 -97.3845 117.586 -105.486 112.326 -114.205C106.705 -123.522 102.639 -133.741 100.141 -144.449C94.0305 -170.624 97.2705 -199.739 109.979 -225.823C127.869 -262.588 163.727 -291.628 203.566 -301.636Z" fill="#A7092A"></path></g><defs><clipPath id="clip0_17434_733"><rect width="154" height="835" fill="white" transform="matrix(-1 0 0 1 154 0)"></rect></clipPath></defs></svg>