<svg xmlns="http://www.w3.org/2000/svg" width="110" height="113" viewBox="0 0 110 113" fill="none"><path d="M108.598 43.0994C108.598 43.0994 103.978 37.1906 84.7307 38.0007C69.296 38.6488 34.9864 58.3733 73.4911 112.999C73.4911 112.999 46.9914 104.563 25.3526 74.7278C23.1787 54.8408 30.4211 42.0514 30.4211 42.0514C23.4303 51.4171 20.5027 60.3503 19.2902 65.5457C14.1019 56.8934 9.41575 46.7714 5.76734 34.9865C13.5009 18.8265 30.0498 14.3759 31.699 13.9549C17.8371 15.381 8.36697 20.4471 2.88366 24.4224C1.74754 19.6262 0.775738 14.5921 0 9.2995C0 9.2995 13.1075 0.970941 52.4313 0.041921C91.7551 -0.887099 88.0084 13.9331 88.0084 13.9331C88.0084 13.9331 116.561 20.4151 108.598 43.0994Z" fill="#324FB3"></path><path d="M78.8569 18.3265C78.8569 18.3265 68.5818 18.7908 61.5762 16.7026C61.5762 16.7026 68.115 20.879 71.151 21.2266C74.187 21.5741 78.8569 18.3265 78.8569 18.3265Z" fill="#FFFEFE"></path><path d="M108.587 43.0892C108.314 42.7654 103.409 37.2131 84.7312 38.0013C69.2965 38.6495 34.9868 58.374 73.4915 113C73.4915 113 58.1228 108.107 41.2245 92.5949C35.2825 64.11 50.6946 35.657 77.118 33.0319C104.098 30.3535 108.435 42.603 108.587 43.0892Z" fill="url(#paint0_linear_17429_722)"></path><path d="M86.7924 44.5137L90.1121 51.6613L98.0125 52.5746L92.1639 57.9059L93.7264 65.6184L86.7924 61.7652L79.8578 65.6184L81.4202 57.9059L75.5723 52.5746L83.4726 51.6613L86.7924 44.5137Z" fill="url(#paint1_linear_17429_722)"></path><path d="M73.3954 68.1719L75.8661 73.4917L81.7459 74.1712L77.3932 78.1392L78.5562 83.8788L73.3954 81.0114L68.2346 83.8788L69.3976 78.1392L65.0449 74.1712L70.9246 73.4917L73.3954 68.1719Z" fill="url(#paint2_linear_17429_722)"></path><path d="M73.3954 68.1719L75.8661 73.4917L81.7459 74.1712L77.3932 78.1392L78.5562 83.8788L73.3954 81.0114L68.2346 83.8788L69.3976 78.1392L65.0449 74.1712L70.9246 73.4917L73.3954 68.1719Z" fill="url(#paint3_linear_17429_722)"></path><path d="M80.8634 89.5732L82.6177 93.3509L86.7932 93.8336L83.7019 96.6514L84.5277 100.728L80.8634 98.6907L77.1985 100.728L78.0243 96.6514L74.9336 93.8336L79.1085 93.3509L80.8634 89.5732Z" fill="url(#paint4_linear_17429_722)"></path><path d="M80.8634 89.5732L82.6177 93.3509L86.7932 93.8336L83.7019 96.6514L84.5277 100.728L80.8634 98.6907L77.1985 100.728L78.0243 96.6514L74.9336 93.8336L79.1085 93.3509L80.8634 89.5732Z" fill="url(#paint5_linear_17429_722)"></path><defs><linearGradient id="paint0_linear_17429_722" x1="65.3827" y1="117.018" x2="82.3834" y2="4.49349" gradientUnits="userSpaceOnUse"><stop stop-color="white" stop-opacity="0"></stop><stop offset="0.0634" stop-color="white" stop-opacity="0.0634"></stop><stop offset="0.4773" stop-color="#B5C6FF" stop-opacity="0.4773"></stop><stop offset="0.8037" stop-color="#B5C6FF" stop-opacity="0.8037"></stop><stop offset="1" stop-color="#B5C6FF"></stop></linearGradient><linearGradient id="paint1_linear_17429_722" x1="83.8862" y1="66.6736" x2="87.5019" y2="36.8825" gradientUnits="userSpaceOnUse"><stop stop-color="#FD7269"></stop><stop offset="0.0634" stop-color="#FD7269"></stop><stop offset="0.4773" stop-color="#F6483D"></stop><stop offset="0.8037" stop-color="#F6483D"></stop><stop offset="1" stop-color="#F6483D"></stop></linearGradient><linearGradient id="paint2_linear_17429_722" x1="146.697" y1="196.03" x2="30.1515" y2="1.5733" gradientUnits="userSpaceOnUse"><stop stop-color="#ECCF89"></stop><stop offset="0.1007" stop-color="#E4C073"></stop><stop offset="0.2408" stop-color="#DBAE59"></stop><stop offset="0.3254" stop-color="#D8A850"></stop><stop offset="0.3692" stop-color="#E8BF66"></stop><stop offset="0.4195" stop-color="#F5D278"></stop><stop offset="0.4713" stop-color="#FCDD82"></stop><stop offset="0.5265" stop-color="#FFE186"></stop><stop offset="0.6542" stop-color="#E9C067"></stop><stop offset="0.7911" stop-color="#D6A44C"></stop><stop offset="0.911" stop-color="#CA933C"></stop><stop offset="1" stop-color="#C68D36"></stop></linearGradient><linearGradient id="paint3_linear_17429_722" x1="71.2325" y1="84.6642" x2="73.9235" y2="62.4925" gradientUnits="userSpaceOnUse"><stop stop-color="#FD7269"></stop><stop offset="0.0634" stop-color="#FD7269"></stop><stop offset="0.4773" stop-color="#F6483D"></stop><stop offset="0.8037" stop-color="#F6483D"></stop><stop offset="1" stop-color="#F6483D"></stop></linearGradient><linearGradient id="paint4_linear_17429_722" x1="143.639" y1="197.864" x2="27.0934" y2="3.40807" gradientUnits="userSpaceOnUse"><stop stop-color="#ECCF89"></stop><stop offset="0.1007" stop-color="#E4C073"></stop><stop offset="0.2408" stop-color="#DBAE59"></stop><stop offset="0.3254" stop-color="#D8A850"></stop><stop offset="0.3692" stop-color="#E8BF66"></stop><stop offset="0.4195" stop-color="#F5D278"></stop><stop offset="0.4713" stop-color="#FCDD82"></stop><stop offset="0.5265" stop-color="#FFE186"></stop><stop offset="0.6542" stop-color="#E9C067"></stop><stop offset="0.7911" stop-color="#D6A44C"></stop><stop offset="0.911" stop-color="#CA933C"></stop><stop offset="1" stop-color="#C68D36"></stop></linearGradient><linearGradient id="paint5_linear_17429_722" x1="79.3275" y1="101.285" x2="81.2386" y2="85.54" gradientUnits="userSpaceOnUse"><stop stop-color="#FD7269"></stop><stop offset="0.0634" stop-color="#FD7269"></stop><stop offset="0.4773" stop-color="#F6483D"></stop><stop offset="0.8037" stop-color="#F6483D"></stop><stop offset="1" stop-color="#F6483D"></stop></linearGradient></defs></svg>